mtllib new-2.mtl
v -0.359507 0.844408 0.248536
v -0.392564 0.859491 0.248536
v -0.359507 0.859491 0.248536
v -0.359507 0.859491 0.248536
v -0.359507 0.844408 0.248536
v -0.392564 0.859491 0.248536
v 0.374912 0.844408 0.263178
v -0.359507 0.844408 0.248536
v -0.359507 0.844408 0.263178
v 0.374912 0.844408 0.248536
v 0.374912 0.844408 0.248536
v 0.374912 0.844408 0.263178
v -0.359507 0.844408 0.248536
v -0.359507 0.844408 0.263178
v 0.374912 0.844408 0.263178
v -0.359507 0.319791 0.263178
v 0.374912 0.319791 0.263178
v -0.359507 0.844408 0.263178
v -0.359507 0.844408 0.263178
v 0.374912 0.844408 0.263178
v -0.359507 0.319791 0.263178
v 0.374912 0.319791 0.263178
v 0.374912 0.844408 0.263178
v 0.385788 0.823874 0.263178
v 0.385788 0.844408 0.263178
v 0.385788 0.844408 0.263178
v 0.385788 0.823874 0.263178
v 0.374912 0.844408 0.263178
v 0.385788 0.859491 0.248536
v 0.374912 0.844408 0.248536
v -0.359507 0.844408 0.248536
v -0.359507 0.859491 0.248536
v -0.359507 0.859491 0.248536
v 0.385788 0.859491 0.248536
v -0.359507 0.844408 0.248536
v 0.374912 0.844408 0.248536
v 0.385788 0.859491 0.263178
v 0.374912 0.844408 0.263178
v 0.385788 0.844408 0.263178
v -0.359507 0.844408 0.263178
v -0.359507 0.859491 0.263178
v -0.359507 0.859491 0.263178
v 0.385788 0.859491 0.263178
v -0.359507 0.844408 0.263178
v 0.374912 0.844408 0.263178
v 0.385788 0.844408 0.263178
v -0.359507 0.844408 0.263178
v -0.392564 0.319791 0.263178
v -0.359507 0.319791 0.263178
v -0.392564 0.821654 0.263178
v -0.392564 0.859491 0.263178
v -0.359507 0.859491 0.263178
v -0.359507 0.859491 0.263178
v -0.359507 0.844408 0.263178
v -0.392564 0.859491 0.263178
v -0.392564 0.821654 0.263178
v -0.392564 0.319791 0.263178
v -0.359507 0.319791 0.263178
v 0.385788 0.366548 0.263178
v 0.385788 0.823874 0.360472
v 0.385788 0.366548 0.360472
v 0.385788 0.823874 0.263178
v 0.385788 0.823874 0.263178
v 0.385788 0.366548 0.263178
v 0.385788 0.823874 0.360472
v 0.385788 0.366548 0.360472
v -0.392564 0.821654 0.263178
v -0.392564 0.366548 0.360472
v -0.392564 0.823874 0.360472
v -0.392564 0.366548 0.263178
v -0.392564 0.366548 0.263178
v -0.392564 0.821654 0.263178
v -0.392564 0.366548 0.360472
v -0.392564 0.823874 0.360472
v 0.385788 0.366548 0.360472
v 0.054394 0.420614 0.360472
v -0.392564 0.366548 0.360472
v 0.346664 0.736583 0.360472
v 0.361730 0.754817 0.360472
v 0.385788 0.823874 0.360472
v 0.054394 0.476650 0.360472
v -0.017047 0.476650 0.360472
v 0.326278 0.722076 0.360472
v -0.301816 0.476650 0.360472
v 0.302832 0.713340 0.360472
v -0.373257 0.476650 0.360472
v 0.277924 0.710970 0.360472
v 0.358990 0.760930 0.360472
v 0.343297 0.780209 0.360472
v 0.323149 0.794770 0.360472
v 0.299919 0.803619 0.360472
v 0.275190 0.806155 0.360472
v -0.373257 0.420614 0.360472
v -0.392564 0.823874 0.360472
v -0.017047 0.420614 0.360472
v -0.301816 0.420614 0.360472
v 0.253251 0.715127 0.360472
v 0.230495 0.725529 0.360472
v 0.211207 0.741465 0.360472
v 0.197450 0.760797 0.360472
v 0.208685 0.776343 0.360472
v 0.227964 0.792036 0.360472
v 0.250647 0.802204 0.360472
v -0.301816 0.476650 0.360472
v -0.017047 0.476650 0.360472
v -0.301816 0.420614 0.360472
v -0.017047 0.420614 0.360472
v 0.385788 0.823874 0.360472
v 0.275190 0.806155 0.360472
v -0.392564 0.823874 0.360472
v 0.250647 0.802204 0.360472
v 0.227964 0.792036 0.360472
v 0.208685 0.776343 0.360472
v 0.197450 0.760797 0.360472
v 0.211207 0.741465 0.360472
v 0.230495 0.725529 0.360472
v 0.253251 0.715127 0.360472
v 0.277924 0.710970 0.360472
v -0.373257 0.476650 0.360472
v -0.373257 0.420614 0.360472
v 0.054394 0.420614 0.360472
v -0.392564 0.366548 0.360472
v 0.299919 0.803619 0.360472
v 0.323149 0.794770 0.360472
v 0.343297 0.780209 0.360472
v 0.358990 0.760930 0.360472
v 0.361730 0.754817 0.360472
v 0.302832 0.713340 0.360472
v 0.326278 0.722076 0.360472
v 0.346664 0.736583 0.360472
v 0.054394 0.476650 0.360472
v 0.385788 0.366548 0.360472
vn 0.000000 -1.000000 0.000000
vn 0.000000 0.000000 1.000000
vn -1.000000 0.000000 0.000000
vn 1.000000 0.000000 0.000000
vn 0.000000 0.000000 -1.000000
vn 0.000000 1.000000 0.000000
usemtl material-0
f 2//2 1//2 3//2
f 7//6 8//6 9//6
f 8//6 7//6 10//6
f 15//2 16//2 17//2
f 16//2 15//2 18//2
f 23//2 24//2 25//2
f 30//2 29//2 31//2
f 31//2 29//2 32//2
f 37//2 38//2 39//2
f 38//2 37//2 40//2
f 40//2 37//2 41//2
f 47//2 48//2 49//2
f 50//2 47//2 51//2
f 51//2 47//2 52//2
f 59//4 60//4 61//4
f 60//4 59//4 62//4
f 67//3 68//3 69//3
f 68//3 67//3 70//3
f 75//2 76//2 77//2
f 76//2 75//2 78//2
f 78//2 75//2 79//2
f 79//2 75//2 80//2
f 76//2 78//2 81//2
f 81//2 78//2 82//2
f 82//2 78//2 83//2
f 82//2 83//2 84//2
f 84//2 83//2 85//2
f 84//2 85//2 86//2
f 86//2 85//2 87//2
f 79//2 80//2 88//2
f 88//2 80//2 89//2
f 89//2 80//2 90//2
f 90//2 80//2 91//2
f 91//2 80//2 92//2
f 77//2 93//2 94//2
f 93//2 77//2 76//2
f 93//2 76//2 95//2
f 93//2 95//2 96//2
f 94//2 93//2 86//2
f 94//2 86//2 87//2
f 94//2 87//2 97//2
f 94//2 97//2 98//2
f 94//2 98//2 99//2
f 94//2 99//2 100//2
f 94//2 100//2 101//2
f 94//2 101//2 102//2
f 94//2 102//2 103//2
f 94//2 103//2 92//2
f 94//2 92//2 80//2
f 82//2 96//2 95//2
f 96//2 82//2 84//2
usemtl material-1
f 4//5 5//5 6//5
f 11//1 12//1 13//1
f 14//1 13//1 12//1
f 19//5 20//5 21//5
f 22//5 21//5 20//5
f 26//5 27//5 28//5
f 33//5 34//5 35//5
f 35//5 34//5 36//5
f 42//5 43//5 44//5
f 44//5 43//5 45//5
f 46//5 45//5 43//5
f 53//5 54//5 55//5
f 55//5 54//5 56//5
f 58//5 57//5 54//5
f 63//3 64//3 65//3
f 66//3 65//3 64//3
f 71//4 72//4 73//4
f 74//4 73//4 72//4
f 104//5 105//5 106//5
f 107//5 106//5 105//5
f 108//5 109//5 110//5
f 109//5 111//5 110//5
f 111//5 112//5 110//5
f 112//5 113//5 110//5
f 113//5 114//5 110//5
f 114//5 115//5 110//5
f 115//5 116//5 110//5
f 116//5 117//5 110//5
f 117//5 118//5 110//5
f 118//5 119//5 110//5
f 119//5 120//5 110//5
f 106//5 107//5 120//5
f 107//5 121//5 120//5
f 121//5 122//5 120//5
f 110//5 120//5 122//5
f 109//5 108//5 123//5
f 123//5 108//5 124//5
f 124//5 108//5 125//5
f 125//5 108//5 126//5
f 126//5 108//5 127//5
f 118//5 128//5 119//5
f 119//5 128//5 104//5
f 128//5 129//5 104//5
f 104//5 129//5 105//5
f 129//5 130//5 105//5
f 105//5 130//5 131//5
f 131//5 130//5 121//5
f 108//5 132//5 127//5
f 127//5 132//5 130//5
f 130//5 132//5 121//5
f 122//5 121//5 132//5