# SSTK version 0.8.0
# 24
mtllib original-24.mtl
o #ID49
v 0.285871 0.769380 0.360472
v 0.305123 0.761136 0.360472
v 0.280341 0.761136 0.360472
v 0.300976 0.769380 0.360472
v 0.302582 0.769079 0.360472
v 0.303920 0.768177 0.360472
v 0.304823 0.766852 0.360472
v 0.305123 0.765284 0.360472
v 0.285871 0.769380 0.376004
v 0.280341 0.761136 0.360472
v 0.280341 0.761136 0.376004
v 0.285871 0.769380 0.360472
v 0.285871 0.769380 0.376004
v 0.300976 0.769380 0.360472
v 0.285871 0.769380 0.360472
v 0.300976 0.769380 0.376004
v 0.302582 0.769079 0.360472
v 0.302582 0.769079 0.376004
v 0.303920 0.768177 0.360472
v 0.303920 0.768177 0.376004
v 0.304823 0.766852 0.376004
v 0.304823 0.766852 0.360472
v 0.305123 0.765284 0.376004
v 0.305123 0.765284 0.360472
v 0.305123 0.761136 0.376004
v 0.305123 0.761136 0.360472
v 0.305123 0.761136 0.376004
v 0.280341 0.761136 0.360472
v 0.305123 0.761136 0.360472
v 0.280341 0.761136 0.376004
v 0.305123 0.761136 0.376004
v 0.285871 0.769380 0.376004
v 0.280341 0.761136 0.376004
v 0.300976 0.769380 0.376004
v 0.302582 0.769079 0.376004
v 0.303920 0.768177 0.376004
v 0.304823 0.766852 0.376004
v 0.305123 0.765284 0.376004
vt -0.08339438339438342 0.03345543345543347
vt -0.1063492063492063 0.02362637362637351
vt -0.07680097680097685 0.02362637362637351
vt -0.1014041514041513 0.03345543345543347
vt -0.103319597069597 0.03309676434676431
vt -0.1049145299145299 0.03202075702075712
vt -0.1059905372405373 0.03044108669108662
vt -0.1063492063492063 0.0285714285714286
vt -0.07424061821037385 0.01851851851851852
vt -0.06240493370844422 0
vt -0.06240493370844422 0.01851851851851852
vt -0.07424061821037385 0
vt -0.08339438339438342 0.01851851851851852
vt -0.1014041514041513 0
vt -0.08339438339438342 0
vt -0.1014041514041513 0.01851851851851852
vt -0.09351427011807752 0.01851851851851852
vt -0.09546300704921733 0
vt -0.09351427011807752 0
vt -0.09546300704921733 0.01851851851851852
vt -0.067140584453269 0.01851851851851852
vt -0.0690645393761991 0
vt -0.067140584453269 0
vt -0.0690645393761991 0.01851851851851852
vt -0.03259868156627039 0
vt -0.03451000312897583 0.01851851851851852
vt -0.03451000312897583 0
vt -0.03259868156627039 0.01851851851851852
vt 0.009927191544677763 0
vt 0.008023441294798175 0.01851851851851852
vt 0.008023441294798175 0
vt 0.009927191544677763 0.01851851851851852
vt 0.0285714285714286 0
vt 0.02362637362637351 0.01851851851851852
vt 0.02362637362637351 0
vt 0.0285714285714286 0.01851851851851852
vt 0.1063492063492063 0.01851851851851852
vt 0.07680097680097685 0
vt 0.1063492063492063 0
vt 0.07680097680097685 0.01851851851851852
vt 0.1063492063492063 0.02362637362637351
vt 0.08339438339438342 0.03345543345543347
vt 0.07680097680097685 0.02362637362637351
vt 0.1014041514041513 0.03345543345543347
vt 0.103319597069597 0.03309676434676431
vt 0.1049145299145299 0.03202075702075712
vt 0.1059905372405373 0.03044108669108662
vt 0.1063492063492063 0.0285714285714286
vn 0 0 -1
vn 0 0 1
vn -0.8304597699826677 0.5570786034666335 0
vn 0.8304597699826677 -0.5570786034666335 0
vn 0 1 0
vn 0.09242161383193559 0.9957199632912361 0
vn 0 -1 0
vn -0.09242161383193559 -0.9957199632912361 0
vn 0.3795457382412496 0.9251729744123015 0
vn -0.3795457382412496 -0.9251729744123015 0
vn 0.7055260668537293 0.708683969756553 0
vn -0.7055260668537293 -0.708683969756553 0
vn 0.9234762515164323 0.38365559149471473 0
vn -0.9234762515164323 -0.38365559149471473 0
vn 0.9955129633565609 0.09462525978320467 0
vn -0.9955129633565609 -0.09462525978320467 0
vn 1 0 0
vn -1 0 0
usemtl material_0_2
f 1/1/1 2/2/1 3/3/1
f 3/3/2 2/2/2 1/1/2
f 2/2/1 1/1/1 4/4/1
f 4/4/2 1/1/2 2/2/2
f 2/2/1 4/4/1 5/5/1
f 5/5/2 4/4/2 2/2/2
f 2/2/1 5/5/1 6/6/1
f 6/6/2 5/5/2 2/2/2
f 2/2/1 6/6/1 7/7/1
f 7/7/2 6/6/2 2/2/2
f 2/2/1 7/7/1 8/8/1
f 8/8/2 7/7/2 2/2/2
f 9/9/3 10/10/3 11/11/3
f 11/11/4 10/10/4 9/9/4
f 10/10/3 9/9/3 12/12/3
f 12/12/4 9/9/4 10/10/4
f 13/13/5 14/14/6 15/15/5
f 15/15/7 14/14/8 13/13/7
f 14/14/6 13/13/5 16/16/6
f 16/16/8 13/13/7 14/14/8
f 16/17/6 17/18/9 14/19/6
f 14/19/8 17/18/10 16/17/8
f 17/18/9 16/17/6 18/20/9
f 18/20/10 16/17/8 17/18/10
f 18/21/9 19/22/11 17/23/9
f 17/23/10 19/22/12 18/21/10
f 19/22/11 18/21/9 20/24/11
f 20/24/12 18/21/10 19/22/12
f 19/25/11 21/26/13 22/27/13
f 22/27/14 21/26/14 19/25/12
f 21/26/13 19/25/11 20/28/11
f 20/28/12 19/25/12 21/26/14
f 22/29/13 23/30/15 24/31/15
f 24/31/16 23/30/16 22/29/14
f 23/30/15 22/29/13 21/32/13
f 21/32/14 22/29/14 23/30/16
f 24/33/15 25/34/17 26/35/17
f 26/35/18 25/34/18 24/33/16
f 25/34/17 24/33/15 23/36/15
f 23/36/16 24/33/16 25/34/18
f 27/37/7 28/38/7 29/39/7
f 29/39/5 28/38/5 27/37/5
f 28/38/7 27/37/7 30/40/7
f 30/40/5 27/37/5 28/38/5
f 31/41/2 32/42/2 33/43/2
f 33/43/1 32/42/1 31/41/1
f 32/42/2 31/41/2 34/44/2
f 34/44/1 31/41/1 32/42/1
f 34/44/2 31/41/2 35/45/2
f 35/45/1 31/41/1 34/44/1
f 35/45/2 31/41/2 36/46/2
f 36/46/1 31/41/1 35/45/1
f 36/46/2 31/41/2 37/47/2
f 37/47/1 31/41/1 36/46/1
f 37/47/2 31/41/2 38/48/2
f 38/48/1 31/41/1 37/47/1
