# SSTK version 0.8.0
# 2
mtllib original-2.mtl
o #ID91
v -0.392564 -0.814353 0.263178
v -0.392564 -0.867549 0.360472
v -0.392564 -0.814353 0.360472
v -0.392564 -0.867549 0.263178
v 0.385788 -0.814353 0.360472
v -0.392564 -0.867549 0.360472
v 0.385788 -0.867549 0.360472
v -0.392564 -0.814353 0.360472
v 0.385788 -0.867549 0.263178
v 0.385788 -0.814353 0.360472
v 0.385788 -0.867549 0.360472
v 0.385788 -0.814353 0.263178
vn -1 0 0
vn 1 0 0
vn 0 0 1
vn 0 0 -1
usemtl material_0_2
f 1//1 2//1 3//1
f 3//2 2//2 1//2
f 2//1 1//1 4//1
f 4//2 1//2 2//2
f 5//3 6//3 7//3
f 7//4 6//4 5//4
f 6//3 5//3 8//3
f 8//4 5//4 6//4
f 9//2 10//2 11//2
f 11//1 10//1 9//1
f 10//2 9//2 12//2
f 12//1 9//1 10//1
