# SSTK version 0.8.0
# 9
mtllib original-9.mtl
o #ID141
v -0.335686 0.297641 0.361137
v -0.336713 0.297641 0.361137
v -0.336200 0.297574 0.361137
v -0.335208 0.297840 0.361137
v -0.337191 0.297840 0.361137
v -0.334797 0.298155 0.361137
v -0.337602 0.298155 0.361137
v -0.334482 0.298565 0.361137
v -0.337917 0.298565 0.361137
v -0.338115 0.299044 0.361137
v -0.334284 0.299044 0.361137
v -0.334216 0.299557 0.361137
v -0.338183 0.299557 0.361137
v -0.334284 0.300070 0.361137
v -0.338115 0.300070 0.361137
v -0.334482 0.300549 0.361137
v -0.337917 0.300549 0.361137
v -0.337602 0.300959 0.361137
v -0.334797 0.300959 0.361137
v -0.335208 0.301275 0.361137
v -0.337191 0.301275 0.361137
v -0.335686 0.301473 0.361137
v -0.336713 0.301473 0.361137
v -0.336200 0.301540 0.361137
v -0.338115 0.300070 0.360472
v -0.338183 0.299557 0.361137
v -0.338115 0.300070 0.361137
v -0.338183 0.299557 0.360472
v -0.338115 0.299044 0.361137
v -0.338115 0.299044 0.360472
v -0.337917 0.298565 0.360472
v -0.337917 0.298565 0.361137
v -0.337602 0.298155 0.361137
v -0.337602 0.298155 0.360472
v -0.337191 0.297840 0.361137
v -0.337191 0.297840 0.360472
v -0.336713 0.297641 0.360472
v -0.336713 0.297641 0.361137
v -0.336200 0.297574 0.361137
v -0.336200 0.297574 0.360472
v -0.335686 0.297641 0.361137
v -0.335686 0.297641 0.360472
v -0.335208 0.297840 0.361137
v -0.335208 0.297840 0.360472
v -0.334797 0.298155 0.360472
v -0.334797 0.298155 0.361137
v -0.334482 0.298565 0.360472
v -0.334482 0.298565 0.361137
v -0.334284 0.299044 0.361137
v -0.334284 0.299044 0.360472
v -0.334216 0.299557 0.361137
v -0.334216 0.299557 0.360472
v -0.334284 0.300070 0.361137
v -0.334284 0.300070 0.360472
v -0.334482 0.300549 0.360472
v -0.334482 0.300549 0.361137
v -0.334797 0.300959 0.361137
v -0.334797 0.300959 0.360472
v -0.335208 0.301275 0.360472
v -0.335208 0.301275 0.361137
v -0.335686 0.301473 0.360472
v -0.335686 0.301473 0.361137
v -0.336200 0.301540 0.360472
v -0.336200 0.301540 0.361137
v -0.336713 0.301473 0.360472
v -0.336713 0.301473 0.361137
v -0.337191 0.301275 0.361137
v -0.337191 0.301275 0.360472
v -0.337602 0.300959 0.360472
v -0.337602 0.300959 0.361137
v -0.337917 0.300549 0.360472
v -0.337917 0.300549 0.361137
vn 0 0 1
vn 0 0 -1
vn -0.9659258262890351 0.2588190451026446 0
vn -1 0 0
vn -0.9659258262890315 0.2588190451026584 0
vn 0.9659258262890351 -0.2588190451026446 0
vn 1 0 0
vn 0.9659258262890315 -0.2588190451026584 0
vn -0.9659258262890527 -0.25881904510257964 0
vn 0.9659258262890527 0.25881904510257964 0
vn -0.9659258262890562 -0.2588190451025658 0
vn 0.9659258262890562 0.2588190451025658 0
vn -0.866025403784628 -0.499999999999672 0
vn -0.8660254037845737 -0.4999999999997663 0
vn 0.866025403784628 0.499999999999672 0
vn 0.8660254037845737 0.4999999999997663 0
vn -0.7071067811867376 -0.7071067811863574 0
vn 0.7071067811867376 0.7071067811863574 0
vn -0.7071067811866295 -0.7071067811864656 0
vn 0.7071067811866295 0.7071067811864656 0
vn -0.49999999999989253 -0.8660254037845009 0
vn 0.49999999999989253 0.8660254037845009 0
vn -0.5000000000000117 -0.8660254037844322 0
vn 0.5000000000000117 0.8660254037844322 0
vn -0.258819045102417 -0.9659258262890962 0
vn 0.258819045102417 0.9659258262890962 0
vn -0.2588190451025369 -0.965925826289064 0
vn 0.2588190451025369 0.965925826289064 0
vn 0 -1 0
vn 0 1 0
vn 0.258819045102294 -0.9659258262891292 0
vn -0.258819045102294 0.9659258262891292 0
vn 0.2588190451024832 -0.9659258262890783 0
vn -0.2588190451024832 0.9659258262890783 0
vn 0.5000000000003333 -0.8660254037842462 0
vn -0.5000000000003333 0.8660254037842462 0
vn 0.5000000000003024 -0.8660254037842642 0
vn -0.5000000000003024 0.8660254037842642 0
vn 0.7071067811866779 -0.7071067811864171 0
vn -0.7071067811866779 0.7071067811864171 0
vn 0.7071067811867285 -0.7071067811863666 0
vn -0.7071067811867285 0.7071067811863666 0
vn 0.8660254037845304 -0.4999999999998412 0
vn 0.8660254037845038 -0.4999999999998875 0
vn -0.8660254037845304 0.4999999999998412 0
vn -0.8660254037845038 0.4999999999998875 0
vn 0.9659258262891716 -0.2588190451021359 0
vn -0.9659258262891716 0.2588190451021359 0
vn 0.9659258262891853 -0.2588190451020841 0
vn -0.9659258262891853 0.2588190451020841 0
vn 0.9659258262891925 0.2588190451020571 0
vn -0.9659258262891925 -0.2588190451020571 0
vn 0.9659258262892065 0.2588190451020054 0
vn -0.9659258262892065 -0.2588190451020054 0
vn 0.8660254037845062 0.4999999999998829 0
vn 0.8660254037844795 0.4999999999999293 0
vn -0.8660254037845062 -0.4999999999998829 0
vn -0.8660254037844795 -0.4999999999999293 0
vn 0.7071067811866367 0.7071067811864583 0
vn -0.7071067811866367 -0.7071067811864583 0
vn 0.7071067811865862 0.7071067811865089 0
vn -0.7071067811865862 -0.7071067811865089 0
vn 0.5000000000003024 0.8660254037842642 0
vn 0.5000000000003333 0.8660254037842462 0
vn -0.5000000000003024 -0.8660254037842642 0
vn -0.5000000000003333 -0.8660254037842462 0
vn 0.2588190451024832 0.9659258262890783 0
vn 0.258819045102294 0.9659258262891292 0
vn -0.2588190451024832 -0.9659258262890783 0
vn -0.258819045102294 -0.9659258262891292 0
vn -0.258819045102417 0.9659258262890962 0
vn -0.2588190451025369 0.965925826289064 0
vn 0.258819045102417 -0.9659258262890962 0
vn 0.2588190451025369 -0.965925826289064 0
vn -0.49999999999989253 0.8660254037845009 0
vn -0.500000000000058 0.8660254037844052 0
vn 0.49999999999989253 -0.8660254037845009 0
vn 0.500000000000058 -0.8660254037844052 0
vn -0.7071067811867213 0.7071067811863738 0
vn -0.7071067811868293 0.7071067811862658 0
vn 0.7071067811867213 -0.7071067811863738 0
vn 0.7071067811868293 -0.7071067811862658 0
vn -0.8660254037846253 0.4999999999996767 0
vn -0.8660254037845979 0.4999999999997245 0
vn 0.8660254037846253 -0.4999999999996767 0
vn 0.8660254037845979 -0.4999999999997245 0
usemtl material_0_2
f 1//1 2//1 3//1
f 3//2 2//2 1//2
f 2//1 1//1 4//1
f 4//2 1//2 2//2
f 2//1 4//1 5//1
f 5//2 4//2 2//2
f 5//1 4//1 6//1
f 6//2 4//2 5//2
f 5//1 6//1 7//1
f 7//2 6//2 5//2
f 7//1 6//1 8//1
f 8//2 6//2 7//2
f 7//1 8//1 9//1
f 9//2 8//2 7//2
f 9//1 8//1 10//1
f 10//2 8//2 9//2
f 10//1 8//1 11//1
f 11//2 8//2 10//2
f 10//1 11//1 12//1
f 12//2 11//2 10//2
f 10//1 12//1 13//1
f 13//2 12//2 10//2
f 13//1 12//1 14//1
f 14//2 12//2 13//2
f 13//1 14//1 15//1
f 15//2 14//2 13//2
f 15//1 14//1 16//1
f 16//2 14//2 15//2
f 15//1 16//1 17//1
f 17//2 16//2 15//2
f 17//1 16//1 18//1
f 18//2 16//2 17//2
f 18//1 16//1 19//1
f 19//2 16//2 18//2
f 18//1 19//1 20//1
f 20//2 19//2 18//2
f 18//1 20//1 21//1
f 21//2 20//2 18//2
f 21//1 20//1 22//1
f 22//2 20//2 21//2
f 21//1 22//1 23//1
f 23//2 22//2 21//2
f 23//1 22//1 24//1
f 24//2 22//2 23//2
f 25//3 26//4 27//5
f 27//8 26//7 25//6
f 26//4 25//3 28//4
f 28//7 25//6 26//7
f 28//4 29//9 26//4
f 26//7 29//10 28//7
f 29//9 28//4 30//11
f 30//12 28//7 29//10
f 29//9 31//13 32//14
f 32//16 31//15 29//10
f 31//13 29//9 30//11
f 30//12 29//10 31//15
f 31//13 33//17 32//14
f 32//16 33//18 31//15
f 33//17 31//13 34//19
f 34//20 31//15 33//18
f 34//19 35//21 33//17
f 33//18 35//22 34//20
f 35//21 34//19 36//23
f 36//24 34//20 35//22
f 37//25 35//21 36//23
f 36//24 35//22 37//26
f 35//21 37//25 38//27
f 38//28 37//26 35//22
f 37//25 39//29 38//27
f 38//28 39//30 37//26
f 39//29 37//25 40//29
f 40//30 37//26 39//30
f 40//29 41//31 39//29
f 39//30 41//32 40//30
f 41//31 40//29 42//33
f 42//34 40//30 41//32
f 42//33 43//35 41//31
f 41//32 43//36 42//34
f 43//35 42//33 44//37
f 44//38 42//34 43//36
f 45//39 43//35 44//37
f 44//38 43//36 45//40
f 43//35 45//39 46//41
f 46//42 45//40 43//36
f 46//41 47//43 48//44
f 48//46 47//45 46//42
f 47//43 46//41 45//39
f 45//40 46//42 47//45
f 47//43 49//47 48//44
f 48//46 49//48 47//45
f 49//47 47//43 50//49
f 50//50 47//45 49//48
f 50//49 51//7 49//47
f 49//48 51//4 50//50
f 51//7 50//49 52//7
f 52//4 50//50 51//4
f 52//7 53//51 51//7
f 51//4 53//52 52//4
f 53//51 52//7 54//53
f 54//54 52//4 53//52
f 53//51 55//55 56//56
f 56//58 55//57 53//52
f 55//55 53//51 54//53
f 54//54 53//52 55//57
f 55//55 57//59 56//56
f 56//58 57//60 55//57
f 57//59 55//55 58//61
f 58//62 55//57 57//60
f 57//59 59//63 60//64
f 60//66 59//65 57//60
f 59//63 57//59 58//61
f 58//62 57//60 59//65
f 60//64 61//67 62//68
f 62//70 61//69 60//66
f 61//67 60//64 59//63
f 59//65 60//66 61//69
f 62//68 63//30 64//30
f 64//29 63//29 62//70
f 63//30 62//68 61//67
f 61//69 62//70 63//29
f 64//30 65//71 66//72
f 66//74 65//73 64//29
f 65//71 64//30 63//30
f 63//29 64//29 65//73
f 67//75 65//71 68//76
f 68//78 65//73 67//77
f 65//71 67//75 66//72
f 66//74 67//77 65//73
f 67//75 69//79 70//80
f 70//82 69//81 67//77
f 69//79 67//75 68//76
f 68//78 67//77 69//81
f 70//80 71//83 72//84
f 72//86 71//85 70//82
f 71//83 70//80 69//79
f 69//81 70//82 71//85
f 71//83 27//5 72//84
f 72//86 27//8 71//85
f 27//5 71//83 25//3
f 25//6 71//85 27//8
