# SSTK version 0.8.0
# 27
mtllib original-27.mtl
o #ID73
v 0.323762 0.759498 0.360472
v 0.322533 0.749564 0.360472
v 0.311882 0.759498 0.360472
v 0.313930 0.741320 0.360472
v 0.308400 0.749564 0.360472
v 0.330725 0.741320 0.360472
v 0.331749 0.752688 0.360472
v 0.332165 0.741647 0.360472
v 0.334054 0.749961 0.360472
v 0.333516 0.742626 0.360472
v 0.334495 0.743989 0.360472
v 0.334822 0.747926 0.360472
v 0.334822 0.745468 0.360472
v 0.330725 0.741320 0.376004
v 0.313930 0.741320 0.360472
v 0.330725 0.741320 0.360472
v 0.313930 0.741320 0.376004
v 0.308400 0.749564 0.376004
v 0.313930 0.741320 0.360472
v 0.313930 0.741320 0.376004
v 0.308400 0.749564 0.360472
v 0.308400 0.749564 0.376004
v 0.322533 0.749564 0.360472
v 0.308400 0.749564 0.360472
v 0.322533 0.749564 0.376004
v 0.322533 0.749564 0.376004
v 0.311882 0.759498 0.360472
v 0.322533 0.749564 0.360472
v 0.311882 0.759498 0.376004
v 0.311882 0.759498 0.376004
v 0.323762 0.759498 0.360472
v 0.311882 0.759498 0.360472
v 0.323762 0.759498 0.376004
v 0.323762 0.759498 0.376004
v 0.331749 0.752688 0.360472
v 0.323762 0.759498 0.360472
v 0.331749 0.752688 0.376004
v 0.334054 0.749961 0.376004
v 0.334054 0.749961 0.360472
v 0.334822 0.747926 0.376004
v 0.334822 0.747926 0.360472
v 0.334822 0.745468 0.376004
v 0.334822 0.745468 0.360472
v 0.334495 0.743989 0.376004
v 0.334495 0.743989 0.360472
v 0.333516 0.742626 0.376004
v 0.333516 0.742626 0.360472
v 0.332165 0.741647 0.360472
v 0.332165 0.741647 0.376004
v 0.313930 0.741320 0.376004
v 0.322533 0.749564 0.376004
v 0.308400 0.749564 0.376004
v 0.330725 0.741320 0.376004
v 0.323762 0.759498 0.376004
v 0.331749 0.752688 0.376004
v 0.332165 0.741647 0.376004
v 0.334054 0.749961 0.376004
v 0.333516 0.742626 0.376004
v 0.334495 0.743989 0.376004
v 0.334822 0.747926 0.376004
v 0.334822 0.745468 0.376004
v 0.311882 0.759498 0.376004
vt -0.1285714285714286 0.02167277167277156
vt -0.1271062271062271 0.009829059829059959
vt -0.1144078144078145 0.02167277167277156
vt -0.1168498168498169 0
vt -0.1102564102564103 0.009829059829059959
vt -0.1368742368742368 0
vt -0.1380952380952381 0.01355311355311344
vt -0.1385912698412698 0.0003891941391942653
vt -0.1408424908424908 0.01030219780219789
vt -0.1402014652014652 0.001556776556776535
vt -0.1413690476190476 0.003182234432234441
vt -0.1417582417582417 0.007875457875457749
vt -0.1417582417582417 0.004945054945054829
vt 0.1368742368742368 0.01851851851851852
vt 0.1168498168498169 0
vt 0.1368742368742368 0
vt 0.1168498168498169 0.01851851851851852
vt 0.05325884828409827 0.01851851851851852
vt 0.0650945327860279 0
vt 0.0650945327860279 0.01851851851851852
vt 0.05325884828409827 0
vt -0.1102564102564103 0.01851851851851852
vt -0.1271062271062271 0
vt -0.1102564102564103 0
vt -0.1271062271062271 0.01851851851851852
vt 0.08624730883611739 0.01851851851851852
vt 0.06888288557198095 0
vt 0.08624730883611739 0
vt 0.06888288557198095 0.01851851851851852
vt -0.1144078144078145 0.01851851851851852
vt -0.1285714285714286 0
vt -0.1144078144078145 0
vt -0.1285714285714286 0.01851851851851852
vt -0.0837788498764109 0.01851851851851852
vt -0.09629411239167338 0
vt -0.0837788498764109 0
vt -0.09629411239167338 0.01851851851851852
vt -0.07878314548124801 0
vt -0.08303941742707557 0.01851851851851852
vt -0.08303941742707557 0
vt -0.07878314548124801 0.01851851851851852
vt -0.04008670887013848 0
vt -0.0426804834192721 0.01851851851851852
vt -0.0426804834192721 0
vt -0.04008670887013848 0.01851851851851852
vt 0.007875457875457749 0
vt 0.004945054945054829 0.01851851851851852
vt 0.004945054945054829 0
vt 0.007875457875457749 0.01851851851851852
vt 0.03539007361289881 0
vt 0.03358480126823626 0.01851851851851852
vt 0.03358480126823626 0
vt 0.03539007361289881 0.01851851851851852
vt 0.08505930922434149 0
vt 0.08305796917159289 0.01851851851851852
vt 0.08305796917159289 0
vt 0.08505930922434149 0.01851851851851852
vt 0.1144160545427162 0.01851851851851852
vt 0.1124270905410707 0
vt 0.1144160545427162 0
vt 0.1124270905410707 0.01851851851851852
vt 0.135248616202683 0.01851851851851852
vt 0.1334880270149787 0
vt 0.135248616202683 0
vt 0.1334880270149787 0.01851851851851852
vt 0.1271062271062271 0.009829059829059959
vt 0.1102564102564103 0.009829059829059959
vt 0.1285714285714286 0.02167277167277156
vt 0.1380952380952381 0.01355311355311344
vt 0.1385912698412698 0.0003891941391942653
vt 0.1408424908424908 0.01030219780219789
vt 0.1402014652014652 0.001556776556776535
vt 0.1413690476190476 0.003182234432234441
vt 0.1417582417582417 0.007875457875457749
vt 0.1417582417582417 0.004945054945054829
vt 0.1144078144078145 0.02167277167277156
vn 0 0 -1
vn 0 0 1
vn 0.1112195367132514 -0.9937958616603763 0
vn 0 -1 0
vn -0.1112195367132514 0.9937958616603763 0
vn 0 1 0
vn -0.8304597699826676 -0.5570786034666336 0
vn 0.8304597699826676 0.5570786034666336 0
vn -0.6820676773165916 -0.731289056092015 0
vn 0.6820676773165916 0.731289056092015 0
vn 0.6487804878048782 0.7609756097560973 0
vn 0.7086450247580617 0.7055651840089945 0
vn -0.6487804878048782 -0.7609756097560973 0
vn -0.7086450247580617 -0.7055651840089945 0
vn 0.8621841047163453 0.5065950745659438 0
vn -0.8621841047163453 -0.5065950745659438 0
vn 0.9837687022239376 0.1794411895987923 0
vn -0.9837687022239376 -0.1794411895987923 0
vn 0.9941037490334914 -0.1084330953056176 0
vn -0.9941037490334914 0.1084330953056176 0
vn 0.9130476529240492 -0.4078528944238167 0
vn -0.9130476529240492 0.4078528944238167 0
vn 0.7086877947944233 -0.7055222246743311 0
vn -0.7086877947944233 0.7055222246743311 0
vn 0.412451093618218 -0.9109797447655663 0
vn -0.412451093618218 0.9109797447655663 0
usemtl material_0_2
f 1/1/1 2/2/1 3/3/1
f 3/3/2 2/2/2 1/1/2
f 2/2/1 4/4/1 5/5/1
f 5/5/2 4/4/2 2/2/2
f 4/4/1 2/2/1 6/6/1
f 6/6/2 2/2/2 4/4/2
f 6/6/1 2/2/1 1/1/1
f 1/1/2 2/2/2 6/6/2
f 6/6/1 1/1/1 7/7/1
f 7/7/2 1/1/2 6/6/2
f 6/6/1 7/7/1 8/8/1
f 8/8/2 7/7/2 6/6/2
f 8/8/1 7/7/1 9/9/1
f 9/9/2 7/7/2 8/8/2
f 8/8/1 9/9/1 10/10/1
f 10/10/2 9/9/2 8/8/2
f 10/10/1 9/9/1 11/11/1
f 11/11/2 9/9/2 10/10/2
f 11/11/1 9/9/1 12/12/1
f 12/12/2 9/9/2 11/11/2
f 11/11/1 12/12/1 13/13/1
f 13/13/2 12/12/2 11/11/2
f 14/14/3 15/15/4 16/16/3
f 16/16/5 15/15/6 14/14/5
f 15/15/4 14/14/3 17/17/4
f 17/17/6 14/14/5 15/15/6
f 18/18/7 19/19/7 20/20/7
f 20/20/8 19/19/8 18/18/8
f 19/19/7 18/18/7 21/21/7
f 21/21/8 18/18/8 19/19/8
f 22/22/6 23/23/6 24/24/6
f 24/24/4 23/23/4 22/22/4
f 23/23/6 22/22/6 25/25/6
f 25/25/4 22/22/4 23/23/4
f 26/26/9 27/27/9 28/28/9
f 28/28/10 27/27/10 26/26/10
f 27/27/9 26/26/9 29/29/9
f 29/29/10 26/26/10 27/27/10
f 30/30/6 31/31/6 32/32/6
f 32/32/4 31/31/4 30/30/4
f 31/31/6 30/30/6 33/33/6
f 33/33/4 30/30/4 31/31/4
f 34/34/11 35/35/12 36/36/11
f 36/36/13 35/35/14 34/34/13
f 35/35/12 34/34/11 37/37/12
f 37/37/14 34/34/13 35/35/14
f 35/38/12 38/39/15 39/40/15
f 39/40/16 38/39/16 35/38/14
f 38/39/15 35/38/12 37/41/12
f 37/41/14 35/38/14 38/39/16
f 39/42/15 40/43/17 41/44/17
f 41/44/18 40/43/18 39/42/16
f 40/43/17 39/42/15 38/45/15
f 38/45/16 39/42/16 40/43/18
f 41/46/17 42/47/19 43/48/19
f 43/48/20 42/47/20 41/46/18
f 42/47/19 41/46/17 40/49/17
f 40/49/18 41/46/18 42/47/20
f 43/50/19 44/51/21 45/52/21
f 45/52/22 44/51/22 43/50/20
f 44/51/21 43/50/19 42/53/19
f 42/53/20 43/50/20 44/51/22
f 45/54/21 46/55/23 47/56/23
f 47/56/24 46/55/24 45/54/22
f 46/55/23 45/54/21 44/57/21
f 44/57/22 45/54/22 46/55/24
f 46/58/23 48/59/25 47/60/23
f 47/60/24 48/59/26 46/58/24
f 48/59/25 46/58/23 49/61/25
f 49/61/26 46/58/24 48/59/26
f 49/62/25 16/63/3 48/64/25
f 48/64/26 16/63/5 49/62/26
f 16/63/3 49/62/25 14/65/3
f 14/65/5 49/62/26 16/63/5
f 50/15/2 51/66/2 52/67/2
f 52/67/1 51/66/1 50/15/1
f 51/66/2 50/15/2 53/16/2
f 53/16/1 50/15/1 51/66/1
f 51/66/2 53/16/2 54/68/2
f 54/68/1 53/16/1 51/66/1
f 54/68/2 53/16/2 55/69/2
f 55/69/1 53/16/1 54/68/1
f 55/69/2 53/16/2 56/70/2
f 56/70/1 53/16/1 55/69/1
f 55/69/2 56/70/2 57/71/2
f 57/71/1 56/70/1 55/69/1
f 57/71/2 56/70/2 58/72/2
f 58/72/1 56/70/1 57/71/1
f 57/71/2 58/72/2 59/73/2
f 59/73/1 58/72/1 57/71/1
f 57/71/2 59/73/2 60/74/2
f 60/74/1 59/73/1 57/71/1
f 60/74/2 59/73/2 61/75/2
f 61/75/1 59/73/1 60/74/1
f 54/68/2 62/76/2 51/66/2
f 51/66/1 62/76/1 54/68/1
