# SSTK version 0.8.0
# 11
mtllib original-11.mtl
o #ID157
v 0.385788 0.859491 0.360472
v -0.392564 0.823874 0.360472
v 0.385788 0.823874 0.360472
v -0.392564 0.859491 0.360472
v -0.392564 0.859491 0.263178
v -0.392564 0.823874 0.360472
v -0.392564 0.859491 0.360472
v -0.392564 0.821654 0.263178
v 0.385788 0.823874 0.263178
v 0.385788 0.859491 0.360472
v 0.385788 0.823874 0.360472
v 0.385788 0.859491 0.263178
v 0.385788 0.844408 0.263178
v 0.385788 0.859491 0.360472
v -0.392564 0.859491 0.263178
v -0.392564 0.859491 0.360472
v -0.359507 0.859491 0.263178
v 0.385788 0.859491 0.263178
vn 0 0 1
vn 0 0 -1
vn -1 0 0
vn 1 0 0
vn 0 1 0
vn 0 -1 0
usemtl material_0_2
f 1//1 2//1 3//1
f 3//2 2//2 1//2
f 2//1 1//1 4//1
f 4//2 1//2 2//2
f 5//3 6//3 7//3
f 7//4 6//4 5//4
f 6//3 5//3 8//3
f 8//4 5//4 6//4
f 9//4 10//4 11//4
f 11//3 10//3 9//3
f 10//4 9//4 12//4
f 12//3 9//3 10//3
f 12//4 9//4 13//4
f 13//3 9//3 12//3
f 14//5 15//5 16//5
f 16//6 15//6 14//6
f 15//5 14//5 17//5
f 17//6 14//6 15//6
f 17//5 14//5 18//5
f 18//6 14//6 17//6
