# SSTK version 0.8.0
# 4
mtllib original-4.mtl
o #ID105
v 0.385788 0.306299 0.360472
v -0.392564 0.292806 0.360472
v 0.385788 0.292806 0.360472
v -0.294619 0.296083 0.360472
v -0.294619 0.303031 0.360472
v -0.361148 0.303031 0.360472
v -0.361148 0.296083 0.360472
v -0.392564 0.306299 0.360472
v 0.385788 0.292806 0.263178
v 0.385788 0.306299 0.360472
v 0.385788 0.292806 0.360472
v 0.385788 0.306299 0.263178
v 0.385788 0.306299 0.360472
v -0.392564 0.306299 0.263178
v -0.392564 0.306299 0.360472
v -0.359507 0.306299 0.263178
v 0.374912 0.306299 0.263178
v 0.385788 0.306299 0.263178
v -0.392564 0.306299 0.263178
v -0.392564 0.292806 0.360472
v -0.392564 0.306299 0.360472
v -0.392564 0.292806 0.263178
vn 0 0 1
vn 0 0 -1
vn 1 0 0
vn -1 0 0
vn 0 1 0
vn 0 -1 0
usemtl material_0_2
f 1//1 2//1 3//1
f 3//2 2//2 1//2
f 2//1 1//1 4//1
f 4//2 1//2 2//2
f 4//1 1//1 5//1
f 5//2 1//2 4//2
f 5//1 1//1 6//1
f 6//2 1//2 5//2
f 2//1 7//1 8//1
f 8//2 7//2 2//2
f 7//1 2//1 4//1
f 4//2 2//2 7//2
f 8//1 7//1 6//1
f 6//2 7//2 8//2
f 8//1 6//1 1//1
f 1//2 6//2 8//2
f 9//3 10//3 11//3
f 11//4 10//4 9//4
f 10//3 9//3 12//3
f 12//4 9//4 10//4
f 13//5 14//5 15//5
f 15//6 14//6 13//6
f 14//5 13//5 16//5
f 16//6 13//6 14//6
f 16//5 13//5 17//5
f 17//6 13//6 16//6
f 17//5 13//5 18//5
f 18//6 13//6 17//6
f 19//4 20//4 21//4
f 21//3 20//3 19//3
f 20//4 19//4 22//4
f 22//3 19//3 20//3
