# SSTK version 0.8.0
# 12
mtllib original-12.mtl
o #ID163
v 0.302832 0.713340 0.363840
v 0.253251 0.715127 0.363840
v 0.277924 0.710970 0.363840
v 0.326278 0.722076 0.363840
v 0.230495 0.725529 0.363840
v 0.346664 0.736583 0.363840
v 0.211207 0.741465 0.363840
v 0.361730 0.754817 0.363840
v 0.197450 0.760797 0.363840
v 0.358990 0.760930 0.363840
v 0.208685 0.776343 0.363840
v 0.343297 0.780209 0.363840
v 0.227964 0.792036 0.363840
v 0.323149 0.794770 0.363840
v 0.250647 0.802204 0.363840
v 0.299919 0.803619 0.363840
v 0.275190 0.806155 0.363840
v 0.346664 0.736583 0.360472
v 0.361730 0.754817 0.363840
v 0.346664 0.736583 0.363840
v 0.361730 0.754817 0.360472
v 0.361730 0.754817 0.363840
v 0.358990 0.760930 0.360472
v 0.358990 0.760930 0.363840
v 0.361730 0.754817 0.360472
v 0.343297 0.780209 0.363840
v 0.343297 0.780209 0.360472
v 0.323149 0.794770 0.360472
v 0.323149 0.794770 0.363840
v 0.299919 0.803619 0.363840
v 0.299919 0.803619 0.360472
v 0.275190 0.806155 0.363840
v 0.275190 0.806155 0.360472
v 0.250647 0.802204 0.363840
v 0.250647 0.802204 0.360472
v 0.227964 0.792036 0.363840
v 0.227964 0.792036 0.360472
v 0.208685 0.776343 0.360472
v 0.208685 0.776343 0.363840
v 0.197450 0.760797 0.363840
v 0.197450 0.760797 0.360472
v 0.197450 0.760797 0.360472
v 0.211207 0.741465 0.363840
v 0.197450 0.760797 0.363840
v 0.211207 0.741465 0.360472
v 0.230495 0.725529 0.363840
v 0.230495 0.725529 0.360472
v 0.253251 0.715127 0.360472
v 0.253251 0.715127 0.363840
v 0.277924 0.710970 0.360472
v 0.277924 0.710970 0.363840
v 0.302832 0.713340 0.360472
v 0.302832 0.713340 0.363840
v 0.326278 0.722076 0.360472
v 0.326278 0.722076 0.363840
vn 0 0 1
vn 0 0 -1
vn 0.6811753873297619 -0.7321202713326198 0
vn 0.7709087087265701 -0.6369456513781473 0
vn 0.6811753873297742 -0.7321202713326085 0
vn -0.6811753873297619 0.7321202713326198 0
vn -0.7709087087265701 0.6369456513781473 0
vn -0.6811753873297742 0.7321202713326085 0
vn 0.912511014129477 0.4090521349319593 0
vn 0.8513123383135326 0.5246592252454402 0
vn 0.8513123383135377 0.5246592252454321 0
vn -0.912511014129477 -0.4090521349319593 0
vn -0.8513123383135326 -0.5246592252454402 0
vn -0.8513123383135377 -0.5246592252454321 0
vn 0.6865127741333494 0.7271177421516632 0
vn -0.6865127741333494 -0.7271177421516632 0
vn 0.6865127741333372 0.727117742151675 0
vn -0.6865127741333372 -0.727117742151675 0
vn 0.4749284989119527 0.880024386549168 0
vn 0.4749284989119513 0.8800243865491687 0
vn -0.4749284989119527 -0.880024386549168 0
vn -0.4749284989119513 -0.8800243865491687 0
vn 0.2309786313461724 0.9729588233123996 0
vn 0.23097863134615215 0.9729588233124044 0
vn -0.2309786313461724 -0.9729588233123996 0
vn -0.23097863134615215 -0.9729588233124044 0
vn -0.028712048235617356 0.9995877241573727 0
vn -0.02871204823563838 0.9995877241573721 0
vn 0.028712048235617356 -0.9995877241573727 0
vn 0.02871204823563838 -0.9995877241573721 0
vn -0.28644604917905 0.9580963734978404 0
vn -0.2864460491790693 0.9580963734978346 0
vn 0.28644604917905 -0.9580963734978404 0
vn 0.2864460491790693 -0.9580963734978346 0
vn -0.5246592252454191 0.8513123383135457 0
vn -0.5246592252454338 0.8513123383135365 0
vn 0.5246592252454191 -0.8513123383135457 0
vn 0.5246592252454338 -0.8513123383135365 0
vn -0.7271177421516701 0.6865127741333423 0
vn -0.7271177421516808 0.686512774133331 0
vn 0.7271177421516701 -0.6865127741333423 0
vn 0.7271177421516808 -0.686512774133331 0
vn -0.8105050473880514 0.5857316520032808 0
vn 0.8105050473880514 -0.5857316520032808 0
vn -0.8147681104624921 -0.5797869661982585 0
vn -0.7321202713326193 -0.6811753873297625 0
vn 0.8147681104624921 0.5797869661982585 0
vn 0.7321202713326193 0.6811753873297625 0
vn -0.7321202713326086 -0.6811753873297741 0
vn 0.7321202713326086 0.6811753873297741 0
vn -0.5308727147339013 -0.8474515683807884 0
vn 0.5308727147339013 0.8474515683807884 0
vn -0.5308727147339013 -0.8474515683807885 0
vn 0.5308727147339013 0.8474515683807885 0
vn -0.29344705993472264 -0.9559753255265889 0
vn 0.29344705993472264 0.9559753255265889 0
vn -0.29344705993470455 -0.9559753255265945 0
vn 0.29344705993470455 0.9559753255265945 0
vn -0.03602347294517191 -0.9993509440616787 0
vn 0.03602347294517191 0.9993509440616787 0
vn -0.03602347294517337 -0.9993509440616787 0
vn 0.03602347294517337 0.9993509440616787 0
vn 0.223855054193971 -0.9746224472644853 0
vn -0.223855054193971 0.9746224472644853 0
vn 0.22385505419399176 -0.9746224472644807 0
vn -0.22385505419399176 0.9746224472644807 0
vn 0.4684782293277882 -0.8834750413259563 0
vn -0.4684782293277882 0.8834750413259563 0
vn 0.4684782293277719 -0.8834750413259649 0
vn -0.4684782293277719 0.8834750413259649 0
usemtl material_0_2
f 1//1 2//1 3//1
f 3//2 2//2 1//2
f 2//1 1//1 4//1
f 4//2 1//2 2//2
f 2//1 4//1 5//1
f 5//2 4//2 2//2
f 5//1 4//1 6//1
f 6//2 4//2 5//2
f 5//1 6//1 7//1
f 7//2 6//2 5//2
f 7//1 6//1 8//1
f 8//2 6//2 7//2
f 7//1 8//1 9//1
f 9//2 8//2 7//2
f 9//1 8//1 10//1
f 10//2 8//2 9//2
f 9//1 10//1 11//1
f 11//2 10//2 9//2
f 11//1 10//1 12//1
f 12//2 10//2 11//2
f 11//1 12//1 13//1
f 13//2 12//2 11//2
f 13//1 12//1 14//1
f 14//2 12//2 13//2
f 13//1 14//1 15//1
f 15//2 14//2 13//2
f 15//1 14//1 16//1
f 16//2 14//2 15//2
f 15//1 16//1 17//1
f 17//2 16//2 15//2
f 18//3 19//4 20//5
f 20//8 19//7 18//6
f 19//4 18//3 21//4
f 21//7 18//6 19//7
f 22//9 23//10 24//11
f 24//14 23//13 22//12
f 23//10 22//9 25//9
f 25//12 22//12 23//13
f 23//10 26//15 24//11
f 24//14 26//16 23//13
f 26//15 23//10 27//17
f 27//18 23//13 26//16
f 26//15 28//19 29//20
f 29//22 28//21 26//16
f 28//19 26//15 27//17
f 27//18 26//16 28//21
f 30//23 28//19 31//24
f 31//26 28//21 30//25
f 28//19 30//23 29//20
f 29//22 30//25 28//21
f 32//27 31//24 33//28
f 33//30 31//26 32//29
f 31//24 32//27 30//23
f 30//25 32//29 31//26
f 34//31 33//28 35//32
f 35//34 33//30 34//33
f 33//28 34//31 32//27
f 32//29 34//33 33//30
f 36//35 35//32 37//36
f 37//38 35//34 36//37
f 35//32 36//35 34//31
f 34//33 36//37 35//34
f 36//35 38//39 39//40
f 39//42 38//41 36//37
f 38//39 36//35 37//36
f 37//38 36//37 38//41
f 38//39 40//43 39//40
f 39//42 40//44 38//41
f 40//43 38//39 41//43
f 41//44 38//41 40//44
f 42//45 43//46 44//45
f 44//47 43//48 42//47
f 43//46 42//45 45//49
f 45//50 42//47 43//48
f 45//49 46//51 43//46
f 43//48 46//52 45//50
f 46//51 45//49 47//53
f 47//54 45//50 46//52
f 48//55 46//51 47//53
f 47//54 46//52 48//56
f 46//51 48//55 49//57
f 49//58 48//56 46//52
f 50//59 49//57 48//55
f 48//56 49//58 50//60
f 49//57 50//59 51//61
f 51//62 50//60 49//58
f 52//63 51//61 50//59
f 50//60 51//62 52//64
f 51//61 52//63 53//65
f 53//66 52//64 51//62
f 54//67 53//65 52//63
f 52//64 53//66 54//68
f 53//65 54//67 55//69
f 55//70 54//68 53//66
f 54//67 20//5 55//69
f 55//70 20//8 54//68
f 20//5 54//67 18//3
f 18//6 54//68 20//8
