# SSTK version 0.8.0
# 25
mtllib original-25.mtl
o #ID57
v 0.280648 0.756925 0.360472
v 0.280341 0.745468 0.360472
v 0.280341 0.755350 0.360472
v 0.280648 0.743893 0.360472
v 0.281570 0.758269 0.360472
v 0.281570 0.742549 0.360472
v 0.282914 0.759191 0.360472
v 0.282914 0.741628 0.360472
v 0.284488 0.759498 0.360472
v 0.284488 0.741320 0.360472
v 0.289711 0.759498 0.360472
v 0.288636 0.751254 0.360472
v 0.295241 0.751254 0.360472
v 0.305123 0.759498 0.360472
v 0.296880 0.749564 0.360472
v 0.296880 0.759498 0.360472
v 0.288636 0.749564 0.360472
v 0.305123 0.741320 0.360472
v 0.284488 0.741320 0.376004
v 0.282914 0.741628 0.360472
v 0.284488 0.741320 0.360472
v 0.282914 0.741628 0.376004
v 0.281570 0.742549 0.360472
v 0.281570 0.742549 0.376004
v 0.280648 0.743893 0.376004
v 0.280648 0.743893 0.360472
v 0.280341 0.745468 0.376004
v 0.280341 0.745468 0.360472
v 0.280341 0.755350 0.376004
v 0.280341 0.755350 0.360472
v 0.280648 0.756925 0.376004
v 0.280648 0.756925 0.360472
v 0.281570 0.758269 0.376004
v 0.281570 0.758269 0.360472
v 0.282914 0.759191 0.360472
v 0.282914 0.759191 0.376004
v 0.284488 0.759498 0.360472
v 0.284488 0.759498 0.376004
v 0.289711 0.759498 0.360472
v 0.289711 0.759498 0.376004
v 0.289711 0.759498 0.360472
v 0.295241 0.751254 0.376004
v 0.295241 0.751254 0.360472
v 0.289711 0.759498 0.376004
v 0.295241 0.751254 0.376004
v 0.288636 0.751254 0.360472
v 0.295241 0.751254 0.360472
v 0.288636 0.751254 0.376004
v 0.288636 0.751254 0.360472
v 0.288636 0.749564 0.376004
v 0.288636 0.749564 0.360472
v 0.288636 0.751254 0.376004
v 0.288636 0.749564 0.376004
v 0.296880 0.749564 0.360472
v 0.288636 0.749564 0.360472
v 0.296880 0.749564 0.376004
v 0.296880 0.759498 0.376004
v 0.296880 0.749564 0.360472
v 0.296880 0.749564 0.376004
v 0.296880 0.759498 0.360472
v 0.296880 0.759498 0.376004
v 0.305123 0.759498 0.360472
v 0.296880 0.759498 0.360472
v 0.305123 0.759498 0.376004
v 0.305123 0.759498 0.360472
v 0.305123 0.741320 0.376004
v 0.305123 0.741320 0.360472
v 0.305123 0.759498 0.376004
v 0.305123 0.741320 0.376004
v 0.305123 0.741320 0.360472
v 0.280648 0.743893 0.376004
v 0.280341 0.755350 0.376004
v 0.280341 0.745468 0.376004
v 0.280648 0.756925 0.376004
v 0.281570 0.742549 0.376004
v 0.281570 0.758269 0.376004
v 0.282914 0.741628 0.376004
v 0.282914 0.759191 0.376004
v 0.284488 0.741320 0.376004
v 0.284488 0.759498 0.376004
v 0.288636 0.749564 0.376004
v 0.305123 0.741320 0.376004
v 0.296880 0.749564 0.376004
v 0.296880 0.759498 0.376004
v 0.305123 0.759498 0.376004
v 0.288636 0.751254 0.376004
v 0.289711 0.759498 0.376004
v 0.295241 0.751254 0.376004
vt -0.07716727716727716 0.01860500610500616
vt -0.07680097680097685 0.004945054945054829
vt -0.07680097680097685 0.01672771672771673
vt -0.07716727716727716 0.003067765567765664
vt -0.07826617826617831 0.0202075702075701
vt -0.07826617826617831 0.00146520146520146
vt -0.07986874236874239 0.02130647130647126
vt -0.07986874236874239 0.0003663003663002992
vt -0.08174603174603168 0.02167277167277156
vt -0.08174603174603168 0
vt -0.08797313797313795 0.02167277167277156
vt -0.08669108669108665 0.01184371184371187
vt -0.09456654456654452 0.01184371184371187
vt -0.1063492063492063 0.02167277167277156
vt -0.09652014652014647 0.009829059829059959
vt -0.09652014652014647 0.02167277167277156
vt -0.08669108669108665 0.009829059829059959
vt -0.1063492063492063 0
vt 0.08023296109416421 0.01851851851851852
vt 0.07832026891703926 0
vt 0.08023296109416421 0
vt 0.07832026891703926 0.01851851851851852
vt 0.06566290294836342 0.01851851851851852
vt 0.06371976236467083 0
vt 0.06566290294836342 0
vt 0.06371976236467083 0.01851851851851852
vt 0.04111020858436308 0.01851851851851852
vt 0.04305334916805578 0
vt 0.04305334916805578 0.01851851851851852
vt 0.04111020858436308 0
vt 0.009854657765313647 0.01851851851851852
vt 0.01176734994243846 0
vt 0.01176734994243846 0.01851851851851852
vt 0.009854657765313647 0
vt -0.01672771672771673 0.01851851851851852
vt -0.004945054945054829 0
vt -0.004945054945054829 0.01851851851851852
vt -0.01672771672771673 0
vt -0.03303897144238508 0.01851851851851852
vt -0.03112627926526002 0
vt -0.03112627926526002 0.01851851851851852
vt -0.03303897144238508 0
vt -0.06092750926606076 0.01851851851851852
vt -0.05898436868236828 0
vt -0.05898436868236828 0.01851851851851852
vt -0.06092750926606076 0
vt -0.07597632928901706 0.01851851851851852
vt -0.07791946987270965 0
vt -0.07597632928901706 0
vt -0.07791946987270965 0.01851851851851852
vt -0.08247082920971174 0.01851851851851852
vt -0.08438352138683669 0
vt -0.08247082920971174 0
vt -0.08438352138683669 0.01851851851851852
vt -0.08174603174603168 0.01851851851851852
vt -0.08797313797313795 0
vt -0.08797313797313795 0.01851851851851852
vt -0.03100958786639641 0
vt -0.04284527236832583 0.01851851851851852
vt -0.04284527236832583 0
vt -0.03100958786639641 0.01851851851851852
vt 0.09456654456654452 0.01851851851851852
vt 0.08669108669108665 0
vt 0.09456654456654452 0
vt 0.08669108669108665 0.01851851851851852
vt 0.01184371184371187 0
vt 0.009829059829059959 0.01851851851851852
vt 0.009829059829059959 0
vt 0.01184371184371187 0.01851851851851852
vt -0.08669108669108665 0.01851851851851852
vt -0.09652014652014647 0
vt -0.08669108669108665 0
vt -0.09652014652014647 0.01851851851851852
vt -0.02167277167277156 0.01851851851851852
vt -0.009829059829059959 0
vt -0.009829059829059959 0.01851851851851852
vt -0.02167277167277156 0
vt -0.1063492063492063 0.01851851851851852
vt 0.02167277167277156 0
vt 0 0.01851851851851852
vt 0 0
vt 0.02167277167277156 0.01851851851851852
vt 0.1063492063492063 0.01851851851851852
vt 0.08174603174603168 0
vt 0.1063492063492063 0
vt 0.08174603174603168 0.01851851851851852
vt 0.07716727716727716 0.003067765567765664
vt 0.07680097680097685 0.01672771672771673
vt 0.07680097680097685 0.004945054945054829
vt 0.07716727716727716 0.01860500610500616
vt 0.07826617826617831 0.00146520146520146
vt 0.07826617826617831 0.0202075702075701
vt 0.07986874236874239 0.0003663003663002992
vt 0.07986874236874239 0.02130647130647126
vt 0.08174603174603168 0.02167277167277156
vt 0.08669108669108665 0.009829059829059959
vt 0.09652014652014647 0.009829059829059959
vt 0.09652014652014647 0.02167277167277156
vt 0.1063492063492063 0.02167277167277156
vt 0.08669108669108665 0.01184371184371187
vt 0.08797313797313795 0.02167277167277156
vt 0.09456654456654452 0.01184371184371187
vn 0 0 -1
vn 0 0 1
vn -0.09620137206480223 -0.9953618919834382 0
vn -0.386549433821013 -0.9222686892726296 0
vn 0.09620137206480223 0.9953618919834382 0
vn 0.386549433821013 0.9222686892726296 0
vn -0.7071067811865479 -0.7071067811865472 0
vn 0.7071067811865479 0.7071067811865472 0
vn -0.9222686892726301 -0.3865494338210124 0
vn 0.9222686892726301 0.3865494338210124 0
vn -0.9953618919834382 -0.096201372064802 0
vn 0.9953618919834382 0.096201372064802 0
vn -0.9953618919834382 0.096201372064802 0
vn 0.9953618919834382 -0.096201372064802 0
vn -0.92226868927263 0.3865494338210127 0
vn 0.92226868927263 -0.3865494338210127 0
vn -0.7071067811865477 0.7071067811865474 0
vn 0.7071067811865477 -0.7071067811865474 0
vn -0.3865494338210138 0.9222686892726294 0
vn 0.3865494338210138 -0.9222686892726294 0
vn -0.09620137206480295 0.995361891983438 0
vn 0.09620137206480295 -0.995361891983438 0
vn 0 1 0
vn 0 -1 0
vn 0.8304597699826677 0.5570786034666335 0
vn -0.8304597699826677 -0.5570786034666335 0
vn 1 0 0
vn -1 0 0
usemtl material_0_2
f 1/1/1 2/2/1 3/3/1
f 3/3/2 2/2/2 1/1/2
f 2/2/1 1/1/1 4/4/1
f 4/4/2 1/1/2 2/2/2
f 4/4/1 1/1/1 5/5/1
f 5/5/2 1/1/2 4/4/2
f 4/4/1 5/5/1 6/6/1
f 6/6/2 5/5/2 4/4/2
f 6/6/1 5/5/1 7/7/1
f 7/7/2 5/5/2 6/6/2
f 6/6/1 7/7/1 8/8/1
f 8/8/2 7/7/2 6/6/2
f 8/8/1 7/7/1 9/9/1
f 9/9/2 7/7/2 8/8/2
f 8/8/1 9/9/1 10/10/1
f 10/10/2 9/9/2 8/8/2
f 10/10/1 9/9/1 11/11/1
f 11/11/2 9/9/2 10/10/2
f 10/10/1 11/11/1 12/12/1
f 12/12/2 11/11/2 10/10/2
f 12/12/1 11/11/1 13/13/1
f 13/13/2 11/11/2 12/12/2
f 14/14/1 15/15/1 16/16/1
f 16/16/2 15/15/2 14/14/2
f 10/10/1 17/17/1 18/18/1
f 18/18/2 17/17/2 10/10/2
f 17/17/1 10/10/1 12/12/1
f 12/12/2 10/10/2 17/17/2
f 18/18/1 17/17/1 15/15/1
f 15/15/2 17/17/2 18/18/2
f 18/18/1 15/15/1 14/14/1
f 14/14/2 15/15/2 18/18/2
f 19/19/3 20/20/4 21/21/3
f 21/21/5 20/20/6 19/19/5
f 20/20/4 19/19/3 22/22/4
f 22/22/6 19/19/5 20/20/6
f 22/23/4 23/24/7 20/25/4
f 20/25/6 23/24/8 22/23/6
f 23/24/7 22/23/4 24/26/7
f 24/26/8 22/23/6 23/24/8
f 25/27/9 23/28/7 24/29/7
f 24/29/8 23/28/8 25/27/10
f 23/28/7 25/27/9 26/30/9
f 26/30/10 25/27/10 23/28/8
f 27/31/11 26/32/9 25/33/9
f 25/33/10 26/32/10 27/31/12
f 26/32/9 27/31/11 28/34/11
f 28/34/12 27/31/12 26/32/10
f 29/35/13 28/36/11 27/37/11
f 27/37/12 28/36/12 29/35/14
f 28/36/11 29/35/13 30/38/13
f 30/38/14 29/35/14 28/36/12
f 31/39/15 30/40/13 29/41/13
f 29/41/14 30/40/14 31/39/16
f 30/40/13 31/39/15 32/42/15
f 32/42/16 31/39/16 30/40/14
f 33/43/17 32/44/15 31/45/15
f 31/45/16 32/44/16 33/43/18
f 32/44/15 33/43/17 34/46/17
f 34/46/18 33/43/18 32/44/16
f 33/47/17 35/48/19 34/49/17
f 34/49/18 35/48/20 33/47/18
f 35/48/19 33/47/17 36/50/19
f 36/50/20 33/47/18 35/48/20
f 36/51/19 37/52/21 35/53/19
f 35/53/20 37/52/22 36/51/20
f 37/52/21 36/51/19 38/54/21
f 38/54/22 36/51/20 37/52/22
f 38/55/21 39/56/23 37/10/21
f 37/10/22 39/56/24 38/55/22
f 39/56/23 38/55/21 40/57/23
f 40/57/24 38/55/22 39/56/24
f 41/58/25 42/59/25 43/60/25
f 43/60/26 42/59/26 41/58/26
f 42/59/25 41/58/25 44/61/25
f 44/61/26 41/58/26 42/59/26
f 45/62/24 46/63/24 47/64/24
f 47/64/23 46/63/23 45/62/23
f 46/63/24 45/62/24 48/65/24
f 48/65/23 45/62/23 46/63/23
f 49/66/27 50/67/27 51/68/27
f 51/68/28 50/67/28 49/66/28
f 50/67/27 49/66/27 52/69/27
f 52/69/28 49/66/28 50/67/28
f 53/70/23 54/71/23 55/72/23
f 55/72/24 54/71/24 53/70/24
f 54/71/23 53/70/23 56/73/23
f 56/73/24 53/70/24 54/71/24
f 57/74/28 58/75/28 59/76/28
f 59/76/27 58/75/27 57/74/27
f 58/75/28 57/74/28 60/77/28
f 60/77/27 57/74/27 58/75/27
f 61/73/23 62/18/23 63/71/23
f 63/71/24 62/18/24 61/73/24
f 62/18/23 61/73/23 64/78/23
f 64/78/24 61/73/24 62/18/24
f 65/79/27 66/80/27 67/81/27
f 67/81/28 66/80/28 65/79/28
f 66/80/27 65/79/27 68/82/27
f 68/82/28 65/79/28 66/80/28
f 69/83/24 21/84/3 70/85/24
f 70/85/23 21/84/5 69/83/23
f 21/84/3 69/83/24 19/86/3
f 19/86/5 69/83/23 21/84/5
f 71/87/2 72/88/2 73/89/2
f 73/89/1 72/88/1 71/87/1
f 72/88/2 71/87/2 74/90/2
f 74/90/1 71/87/1 72/88/1
f 74/90/2 71/87/2 75/91/2
f 75/91/1 71/87/1 74/90/1
f 74/90/2 75/91/2 76/92/2
f 76/92/1 75/91/1 74/90/1
f 76/92/2 75/91/2 77/93/2
f 77/93/1 75/91/1 76/92/1
f 76/92/2 77/93/2 78/94/2
f 78/94/1 77/93/1 76/92/1
f 78/94/2 77/93/2 79/84/2
f 79/84/1 77/93/1 78/94/1
f 78/94/2 79/84/2 80/95/2
f 80/95/1 79/84/1 78/94/1
f 80/95/2 79/84/2 81/96/2
f 81/96/1 79/84/1 80/95/1
f 81/96/2 79/84/2 82/85/2
f 82/85/1 79/84/1 81/96/1
f 81/96/2 82/85/2 83/97/2
f 83/97/1 82/85/1 81/96/1
f 83/97/2 82/85/2 84/98/2
f 84/98/1 82/85/1 83/97/1
f 84/98/2 82/85/2 85/99/2
f 85/99/1 82/85/1 84/98/1
f 80/95/2 86/100/2 87/101/2
f 87/101/1 86/100/1 80/95/1
f 86/100/2 80/95/2 81/96/2
f 81/96/1 80/95/1 86/100/1
f 87/101/2 86/100/2 88/102/2
f 88/102/1 86/100/1 87/101/1
