# SSTK version 0.8.0
# 23
mtllib original-23.mtl
o #ID41
v 0.276244 0.779314 0.360472
v 0.267949 0.741320 0.360472
v 0.267949 0.779314 0.360472
v 0.276244 0.741320 0.360472
v 0.267949 0.779314 0.376004
v 0.267949 0.741320 0.360472
v 0.267949 0.741320 0.376004
v 0.267949 0.779314 0.360472
v 0.267949 0.779314 0.376004
v 0.276244 0.779314 0.360472
v 0.267949 0.779314 0.360472
v 0.276244 0.779314 0.376004
v 0.276244 0.779314 0.360472
v 0.276244 0.741320 0.376004
v 0.276244 0.741320 0.360472
v 0.276244 0.779314 0.376004
v 0.276244 0.741320 0.376004
v 0.267949 0.741320 0.360472
v 0.276244 0.741320 0.360472
v 0.267949 0.741320 0.376004
v 0.276244 0.741320 0.376004
v 0.267949 0.779314 0.376004
v 0.267949 0.741320 0.376004
v 0.276244 0.779314 0.376004
vt -0.07191697191697186 0.04529914529914533
vt -0.06202686202686206 0
vt -0.06202686202686206 0.04529914529914533
vt -0.07191697191697186 0
vt -0.04529914529914533 0.01851851851851852
vt 0 0
vt 0 0.01851851851851852
vt -0.04529914529914533 0
vt -0.06202686202686206 0.01851851851851852
vt -0.07191697191697186 0.01851851851851852
vt 0.04529914529914533 0
vt 0.04529914529914533 0.01851851851851852
vt 0.07191697191697186 0.01851851851851852
vt 0.06202686202686206 0
vt 0.07191697191697186 0
vt 0.06202686202686206 0.01851851851851852
vt 0.06202686202686206 0.04529914529914533
vt 0.07191697191697186 0.04529914529914533
vn 0 0 -1
vn 0 0 1
vn -1 0 0
vn 1 0 0
vn 0 1 0
vn 0 -1 0
usemtl material_0_2
f 1/1/1 2/2/1 3/3/1
f 3/3/2 2/2/2 1/1/2
f 2/2/1 1/1/1 4/4/1
f 4/4/2 1/1/2 2/2/2
f 5/5/3 6/6/3 7/7/3
f 7/7/4 6/6/4 5/5/4
f 6/6/3 5/5/3 8/8/3
f 8/8/4 5/5/4 6/6/4
f 9/9/5 10/4/5 11/2/5
f 11/2/6 10/4/6 9/9/6
f 10/4/5 9/9/5 12/10/5
f 12/10/6 9/9/6 10/4/6
f 13/11/4 14/7/4 15/6/4
f 15/6/3 14/7/3 13/11/3
f 14/7/4 13/11/4 16/12/4
f 16/12/3 13/11/3 14/7/3
f 17/13/6 18/14/6 19/15/6
f 19/15/5 18/14/5 17/13/5
f 18/14/6 17/13/6 20/16/6
f 20/16/5 17/13/5 18/14/5
f 21/15/2 22/17/2 23/14/2
f 23/14/1 22/17/1 21/15/1
f 22/17/2 21/15/2 24/18/2
f 24/18/1 21/15/1 22/17/1
