# SSTK version 0.8.0
# 14
mtllib original-14.mtl
o #ID179
v 0.054394 0.476650 0.360472
v -0.017047 0.420614 0.360472
v 0.054394 0.420614 0.360472
v -0.017047 0.476650 0.360472
v -0.017047 0.476650 0.360472
v 0.054394 0.476650 0.360472
v -0.017047 0.420614 0.360472
v 0.054394 0.420614 0.360472
v -0.027867 0.476650 0.366586
v -0.017047 0.420614 0.360472
v -0.027867 0.420614 0.366586
v -0.017047 0.476650 0.360472
v -0.017047 0.476650 0.360472
v -0.027867 0.476650 0.366586
v -0.017047 0.420614 0.360472
v -0.027867 0.420614 0.366586
v -0.059226 0.476650 0.379844
v -0.059226 0.420614 0.379844
v -0.059226 0.476650 0.379844
v -0.059226 0.420614 0.379844
v -0.091893 0.476650 0.389440
v -0.091893 0.420614 0.389440
v -0.091893 0.476650 0.389440
v -0.091893 0.420614 0.389440
v -0.125440 0.476650 0.395248
v -0.125440 0.420614 0.395248
v -0.125440 0.476650 0.395248
v -0.125440 0.420614 0.395248
v -0.159431 0.476650 0.397193
v -0.159431 0.420614 0.397193
v -0.159431 0.476650 0.397193
v -0.159431 0.420614 0.397193
v -0.193422 0.476650 0.395248
v -0.159431 0.420614 0.397193
v -0.193422 0.420614 0.395248
v -0.159431 0.476650 0.397193
v -0.159431 0.476650 0.397193
v -0.193422 0.476650 0.395248
v -0.159431 0.420614 0.397193
v -0.193422 0.420614 0.395248
v -0.226970 0.476650 0.389440
v -0.226970 0.420614 0.389440
v -0.226970 0.476650 0.389440
v -0.226970 0.420614 0.389440
v -0.259636 0.476650 0.379844
v -0.226970 0.420614 0.389440
v -0.259636 0.420614 0.379844
v -0.226970 0.476650 0.389440
v -0.226970 0.476650 0.389440
v -0.259636 0.476650 0.379844
v -0.226970 0.420614 0.389440
v -0.259636 0.420614 0.379844
v -0.290995 0.476650 0.366586
v -0.290995 0.420614 0.366586
v -0.290995 0.476650 0.366586
v -0.290995 0.420614 0.366586
v -0.301816 0.476650 0.360472
v -0.301816 0.420614 0.360472
v -0.301816 0.476650 0.360472
v -0.301816 0.420614 0.360472
v -0.301816 0.476650 0.360472
v -0.373257 0.420614 0.360472
v -0.301816 0.420614 0.360472
v -0.373257 0.476650 0.360472
v -0.373257 0.476650 0.360472
v -0.301816 0.476650 0.360472
v -0.373257 0.420614 0.360472
v -0.301816 0.420614 0.360472
vn 0 0 1
vn -0.4413885263718883 0 -0.8973160919025431
vn -0.4919156814538485 0 -0.8706428443051696
vn -0.3361811839329843 0 -0.9417973304110694
vn -0.2265876299552466 0 -0.9739907832989305
vn -0.114037749673228 0 -0.9934764172588427
vn -0.05711209478366946 0 -0.9983677722309656
vn 0.1140377496732382 0 -0.9934764172588416
vn 0.05711209478366946 0 -0.9983677722309656
vn 0.1705911333993372 0 -0.9853419026944554
vn 0.33618118393297486 0 -0.9417973304110729
vn 0.28184444126767794 0 -0.9594601142968426
vn 0.4413885263718863 0 -0.8973160919025439
vn 0.4919156814538328 0 -0.8706428443051785
vn 0 0 -1
vn 0.4919156814538485 0 0.8706428443051696
vn 0.4413885263718883 0 0.8973160919025431
vn 0.3361811839329843 0 0.9417973304110694
vn 0.2265876299552466 0 0.9739907832989305
vn 0.114037749673228 0 0.9934764172588427
vn 0.05711209478366946 0 0.9983677722309656
vn -0.05711209478366946 0 0.9983677722309656
vn -0.1140377496732382 0 0.9934764172588416
vn -0.1705911333993372 0 0.9853419026944554
vn -0.28184444126767794 0 0.9594601142968426
vn -0.33618118393297486 0 0.9417973304110729
vn -0.4413885263718863 0 0.8973160919025439
vn -0.4919156814538328 0 0.8706428443051785
usemtl material_0_0
f 1//1 2//1 3//1
f 2//1 1//1 4//1
f 9//2 10//3 11//2
f 10//3 9//2 12//3
f 17//4 11//2 18//4
f 11//2 17//4 9//2
f 21//5 18//4 22//5
f 18//4 21//5 17//4
f 25//6 22//5 26//6
f 22//5 25//6 21//5
f 29//7 26//6 30//7
f 26//6 29//7 25//6
f 33//8 34//9 35//8
f 34//9 33//8 36//9
f 41//10 35//8 42//10
f 35//8 41//10 33//8
f 45//11 46//12 47//11
f 46//12 45//11 48//12
f 53//13 47//11 54//13
f 47//11 53//13 45//11
f 57//14 54//13 58//14
f 54//13 57//14 53//13
f 61//1 62//1 63//1
f 62//1 61//1 64//1
usemtl material_1_0
f 5//15 6//15 7//15
f 8//15 7//15 6//15
f 13//16 14//17 15//16
f 16//17 15//16 14//17
f 14//17 19//18 16//17
f 20//18 16//17 19//18
f 19//18 23//19 20//18
f 24//19 20//18 23//19
f 23//19 27//20 24//19
f 28//20 24//19 27//20
f 27//20 31//21 28//20
f 32//21 28//20 31//21
f 37//22 38//23 39//22
f 40//23 39//22 38//23
f 38//23 43//24 40//23
f 44//24 40//23 43//24
f 49//25 50//26 51//25
f 52//26 51//25 50//26
f 50//26 55//27 52//26
f 56//27 52//26 55//27
f 55//27 59//28 56//27
f 60//28 56//27 59//28
f 65//15 66//15 67//15
f 68//15 67//15 66//15
