# SSTK version 0.8.0
# 15
mtllib original-15.mtl
o #ID185
v 0.054394 0.176650 0.360472
v -0.017047 0.128626 0.360472
v 0.054394 0.128626 0.360472
v -0.017047 0.176244 0.360472
v -0.017047 0.176650 0.360472
v -0.017047 0.176650 0.360472
v 0.054394 0.176650 0.360472
v -0.017047 0.176244 0.360472
v -0.017047 0.128626 0.360472
v 0.054394 0.128626 0.360472
v -0.027867 0.176650 0.366586
v -0.017047 0.128626 0.360472
v -0.027867 0.128626 0.366586
v -0.017047 0.176244 0.360472
v -0.017047 0.176650 0.360472
v -0.017047 0.176650 0.360472
v -0.027867 0.176650 0.366586
v -0.017047 0.176244 0.360472
v -0.017047 0.128626 0.360472
v -0.027867 0.128626 0.366586
v -0.059226 0.176650 0.379844
v -0.059226 0.128626 0.379844
v -0.059226 0.176650 0.379844
v -0.059226 0.128626 0.379844
v -0.091893 0.176650 0.389440
v -0.091893 0.128626 0.389440
v -0.091893 0.176650 0.389440
v -0.091893 0.128626 0.389440
v -0.125440 0.176650 0.395248
v -0.125440 0.128626 0.395248
v -0.125440 0.176650 0.395248
v -0.125440 0.128626 0.395248
v -0.159431 0.176650 0.397193
v -0.159431 0.128626 0.397193
v -0.159431 0.176650 0.397193
v -0.159431 0.128626 0.397193
v -0.193422 0.176650 0.395248
v -0.159431 0.128626 0.397193
v -0.193422 0.128626 0.395248
v -0.159431 0.176650 0.397193
v -0.159431 0.176650 0.397193
v -0.193422 0.176650 0.395248
v -0.159431 0.128626 0.397193
v -0.193422 0.128626 0.395248
v -0.226970 0.176650 0.389440
v -0.226970 0.128626 0.389440
v -0.226970 0.176650 0.389440
v -0.226970 0.128626 0.389440
v -0.259636 0.176650 0.379844
v -0.259636 0.128626 0.379844
v -0.259636 0.176650 0.379844
v -0.259636 0.128626 0.379844
v -0.290995 0.176650 0.366586
v -0.290995 0.128626 0.366586
v -0.290995 0.176650 0.366586
v -0.290995 0.128626 0.366586
v -0.301816 0.176244 0.360472
v -0.301816 0.128626 0.360472
v -0.301816 0.176650 0.360472
v -0.301816 0.176650 0.360472
v -0.301816 0.176244 0.360472
v -0.301816 0.128626 0.360472
v -0.301816 0.176244 0.360472
v -0.373257 0.128626 0.360472
v -0.301816 0.128626 0.360472
v -0.373257 0.176650 0.360472
v -0.301816 0.176650 0.360472
v -0.301816 0.176650 0.360472
v -0.301816 0.176244 0.360472
v -0.373257 0.176650 0.360472
v -0.373257 0.128626 0.360472
v -0.301816 0.128626 0.360472
vn 0 0 1
vn -0.4413885263718883 0 -0.8973160919025431
vn -0.4919156814538485 0 -0.8706428443051696
vn -0.3361811839329843 0 -0.9417973304110694
vn -0.2265876299552466 0 -0.9739907832989305
vn -0.114037749673228 0 -0.9934764172588427
vn -0.05711209478366946 0 -0.9983677722309656
vn 0.1140377496732382 0 -0.9934764172588416
vn 0.05711209478366946 0 -0.9983677722309656
vn 0.22658762995524007 0 -0.9739907832989322
vn 0.33618118393297486 0 -0.9417973304110729
vn 0.4413885263718863 0 -0.8973160919025439
vn 0.4919156814538327 0 -0.8706428443051787
vn 0 0 -1
vn 0.4919156814538485 0 0.8706428443051696
vn 0.4413885263718883 0 0.8973160919025431
vn 0.3361811839329843 0 0.9417973304110694
vn 0.2265876299552466 0 0.9739907832989305
vn 0.114037749673228 0 0.9934764172588427
vn 0.05711209478366946 0 0.9983677722309656
vn -0.05711209478366946 0 0.9983677722309656
vn -0.1140377496732382 0 0.9934764172588416
vn -0.22658762995524007 0 0.9739907832989322
vn -0.33618118393297486 0 0.9417973304110729
vn -0.4413885263718863 0 0.8973160919025439
vn -0.4919156814538327 0 0.8706428443051787
usemtl material_0_0
f 1//1 2//1 3//1
f 2//1 1//1 4//1
f 4//1 1//1 5//1
f 11//2 12//3 13//2
f 12//3 11//2 14//3
f 14//3 11//2 15//3
f 21//4 13//2 22//4
f 13//2 21//4 11//2
f 25//5 22//4 26//5
f 22//4 25//5 21//4
f 29//6 26//5 30//6
f 26//5 29//6 25//5
f 33//7 30//6 34//7
f 30//6 33//7 29//6
f 37//8 38//9 39//8
f 38//9 37//8 40//9
f 45//10 39//8 46//10
f 39//8 45//10 37//8
f 49//11 46//10 50//11
f 46//10 49//11 45//10
f 53//12 50//11 54//12
f 50//11 53//12 49//11
f 57//13 54//12 58//13
f 54//12 57//13 53//12
f 53//12 57//13 59//13
f 63//1 64//1 65//1
f 64//1 63//1 66//1
f 66//1 63//1 67//1
usemtl material_1_0
f 6//14 7//14 8//14
f 8//14 7//14 9//14
f 10//14 9//14 7//14
f 16//15 17//16 18//15
f 18//15 17//16 19//15
f 20//16 19//15 17//16
f 17//16 23//17 20//16
f 24//17 20//16 23//17
f 23//17 27//18 24//17
f 28//18 24//17 27//18
f 27//18 31//19 28//18
f 32//19 28//18 31//19
f 31//19 35//20 32//19
f 36//20 32//19 35//20
f 41//21 42//22 43//21
f 44//22 43//21 42//22
f 42//22 47//23 44//22
f 48//23 44//22 47//23
f 47//23 51//24 48//23
f 52//24 48//23 51//24
f 51//24 55//25 52//24
f 56//25 52//24 55//25
f 60//26 61//26 55//25
f 55//25 61//26 56//25
f 62//26 56//25 61//26
f 68//14 69//14 70//14
f 70//14 69//14 71//14
f 72//14 71//14 69//14
