# SSTK version 0.8.0
# 10
mtllib original-10.mtl
o #ID149
v -0.319054 0.297641 0.361067
v -0.320081 0.297641 0.361067
v -0.319567 0.297574 0.361067
v -0.318576 0.297840 0.361067
v -0.320559 0.297840 0.361067
v -0.318165 0.298155 0.361067
v -0.320970 0.298155 0.361067
v -0.317850 0.298565 0.361067
v -0.321285 0.298565 0.361067
v -0.321483 0.299044 0.361067
v -0.317652 0.299044 0.361067
v -0.317584 0.299557 0.361067
v -0.321551 0.299557 0.361067
v -0.317652 0.300070 0.361067
v -0.321483 0.300070 0.361067
v -0.317850 0.300549 0.361067
v -0.321285 0.300549 0.361067
v -0.320970 0.300959 0.361067
v -0.318165 0.300959 0.361067
v -0.318576 0.301275 0.361067
v -0.320559 0.301275 0.361067
v -0.319054 0.301473 0.361067
v -0.320081 0.301473 0.361067
v -0.319567 0.301540 0.361067
v -0.321483 0.300070 0.361067
v -0.321551 0.299557 0.360472
v -0.321551 0.299557 0.361067
v -0.321483 0.300070 0.360472
v -0.321483 0.299044 0.361067
v -0.321483 0.299044 0.360472
v -0.321285 0.298565 0.360472
v -0.321285 0.298565 0.361067
v -0.320970 0.298155 0.361067
v -0.320970 0.298155 0.360472
v -0.320559 0.297840 0.360472
v -0.320559 0.297840 0.361067
v -0.320081 0.297641 0.360472
v -0.320081 0.297641 0.361067
v -0.319567 0.297574 0.361067
v -0.319567 0.297574 0.360472
v -0.319054 0.297641 0.361067
v -0.319054 0.297641 0.360472
v -0.318576 0.297840 0.360472
v -0.318576 0.297840 0.361067
v -0.318165 0.298155 0.360472
v -0.318165 0.298155 0.361067
v -0.317850 0.298565 0.361067
v -0.317850 0.298565 0.360472
v -0.317652 0.299044 0.361067
v -0.317652 0.299044 0.360472
v -0.317584 0.299557 0.361067
v -0.317584 0.299557 0.360472
v -0.317652 0.300070 0.360472
v -0.317652 0.300070 0.361067
v -0.317850 0.300549 0.361067
v -0.317850 0.300549 0.360472
v -0.318165 0.300959 0.360472
v -0.318165 0.300959 0.361067
v -0.318576 0.301275 0.360472
v -0.318576 0.301275 0.361067
v -0.319054 0.301473 0.361067
v -0.319054 0.301473 0.360472
v -0.319567 0.301540 0.360472
v -0.319567 0.301540 0.361067
v -0.320081 0.301473 0.360472
v -0.320081 0.301473 0.361067
v -0.320559 0.301275 0.360472
v -0.320559 0.301275 0.361067
v -0.320970 0.300959 0.361067
v -0.320970 0.300959 0.360472
v -0.321285 0.300549 0.360472
v -0.321285 0.300549 0.361067
vn 0 0 1
vn 0 0 -1
vn -0.9659258262891082 0.25881904510237236 0
vn -1 0 0
vn 0.9659258262891082 -0.25881904510237236 0
vn 1 0 0
vn -0.9659258262891133 0.25881904510235326 0
vn 0.9659258262891133 -0.25881904510235326 0
vn -0.9659258262891294 -0.25881904510229353 0
vn 0.9659258262891294 0.25881904510229353 0
vn -0.9659258262891343 -0.2588190451022745 0
vn 0.9659258262891343 0.2588190451022745 0
vn -0.8660254037846248 -0.4999999999996779 0
vn -0.8660254037846776 -0.4999999999995864 0
vn 0.8660254037846248 0.4999999999996779 0
vn 0.8660254037846776 0.4999999999995864 0
vn -0.7071067811864613 -0.7071067811866338 0
vn 0.7071067811864613 0.7071067811866338 0
vn -0.7071067811865034 -0.7071067811865918 0
vn 0.7071067811865034 0.7071067811865918 0
vn -0.5000000000000459 -0.8660254037844122 0
vn 0.5000000000000459 0.8660254037844122 0
vn -0.25881904510246173 -0.9659258262890842 0
vn 0.25881904510246173 0.9659258262890842 0
vn -0.2588190451025021 -0.9659258262890733 0
vn 0.2588190451025021 0.9659258262890733 0
vn 0 -1 0
vn 0 1 0
vn 0.25881904510241366 -0.9659258262890972 0
vn -0.25881904510241366 0.9659258262890972 0
vn 0.258819045102356 -0.9659258262891124 0
vn -0.258819045102356 0.9659258262891124 0
vn 0.5000000000001439 -0.8660254037843557 0
vn -0.5000000000001439 0.8660254037843557 0
vn 0.5000000000001903 -0.8660254037843289 0
vn -0.5000000000001903 0.8660254037843289 0
vn 0.7071067811867532 -0.7071067811863418 0
vn -0.7071067811867532 0.7071067811863418 0
vn 0.7071067811867897 -0.7071067811863053 0
vn -0.7071067811867897 0.7071067811863053 0
vn 0.8660254037843682 -0.5000000000001218 0
vn -0.8660254037843682 0.5000000000001218 0
vn 0.8660254037844219 -0.5000000000000291 0
vn -0.8660254037844219 0.5000000000000291 0
vn 0.9659258262891139 -0.2588190451023504 0
vn -0.9659258262891139 0.2588190451023504 0
vn 0.9659258262891058 -0.25881904510238124 0
vn -0.9659258262891058 0.25881904510238124 0
vn 0.9659258262891268 0.2588190451023024 0
vn 0.965925826289135 0.2588190451022716 0
vn -0.9659258262891268 -0.2588190451023024 0
vn -0.965925826289135 -0.2588190451022716 0
vn 0.8660254037843442 0.5000000000001635 0
vn -0.8660254037843442 -0.5000000000001635 0
vn 0.8660254037843979 0.5000000000000706 0
vn -0.8660254037843979 -0.5000000000000706 0
vn 0.7071067811866615 0.7071067811864336 0
vn 0.707106781186698 0.707106781186397 0
vn -0.7071067811866615 -0.7071067811864336 0
vn -0.707106781186698 -0.707106781186397 0
vn 0.5000000000001439 0.8660254037843557 0
vn 0.5000000000001903 0.8660254037843289 0
vn -0.5000000000001439 -0.8660254037843557 0
vn -0.5000000000001903 -0.8660254037843289 0
vn 0.25881904510241366 0.9659258262890972 0
vn 0.258819045102356 0.9659258262891124 0
vn -0.25881904510241366 -0.9659258262890972 0
vn -0.258819045102356 -0.9659258262891124 0
vn -0.25881904510246173 0.9659258262890842 0
vn -0.2588190451025021 0.9659258262890733 0
vn 0.25881904510246173 -0.9659258262890842 0
vn 0.2588190451025021 -0.9659258262890733 0
vn -0.5000000000000459 0.8660254037844122 0
vn 0.5000000000000459 -0.8660254037844122 0
vn -0.7071067811865531 0.707106781186542 0
vn -0.7071067811865951 0.7071067811864999 0
vn 0.7071067811865531 -0.707106781186542 0
vn 0.7071067811865951 -0.7071067811864999 0
vn -0.8660254037846488 0.4999999999996361 0
vn -0.8660254037847016 0.4999999999995446 0
vn 0.8660254037846488 -0.4999999999996361 0
vn 0.8660254037847016 -0.4999999999995446 0
usemtl material_0_2
f 1//1 2//1 3//1
f 3//2 2//2 1//2
f 2//1 1//1 4//1
f 4//2 1//2 2//2
f 2//1 4//1 5//1
f 5//2 4//2 2//2
f 5//1 4//1 6//1
f 6//2 4//2 5//2
f 5//1 6//1 7//1
f 7//2 6//2 5//2
f 7//1 6//1 8//1
f 8//2 6//2 7//2
f 7//1 8//1 9//1
f 9//2 8//2 7//2
f 9//1 8//1 10//1
f 10//2 8//2 9//2
f 10//1 8//1 11//1
f 11//2 8//2 10//2
f 10//1 11//1 12//1
f 12//2 11//2 10//2
f 10//1 12//1 13//1
f 13//2 12//2 10//2
f 13//1 12//1 14//1
f 14//2 12//2 13//2
f 13//1 14//1 15//1
f 15//2 14//2 13//2
f 15//1 14//1 16//1
f 16//2 14//2 15//2
f 15//1 16//1 17//1
f 17//2 16//2 15//2
f 17//1 16//1 18//1
f 18//2 16//2 17//2
f 18//1 16//1 19//1
f 19//2 16//2 18//2
f 18//1 19//1 20//1
f 20//2 19//2 18//2
f 18//1 20//1 21//1
f 21//2 20//2 18//2
f 21//1 20//1 22//1
f 22//2 20//2 21//2
f 21//1 22//1 23//1
f 23//2 22//2 21//2
f 23//1 22//1 24//1
f 24//2 22//2 23//2
f 25//3 26//4 27//4
f 27//6 26//6 25//5
f 26//4 25//3 28//7
f 28//8 25//5 26//6
f 26//4 29//9 27//4
f 27//6 29//10 26//6
f 29//9 26//4 30//11
f 30//12 26//6 29//10
f 29//9 31//13 32//14
f 32//16 31//15 29//10
f 31//13 29//9 30//11
f 30//12 29//10 31//15
f 31//13 33//17 32//14
f 32//16 33//18 31//15
f 33//17 31//13 34//19
f 34//20 31//15 33//18
f 35//21 33//17 34//19
f 34//20 33//18 35//22
f 33//17 35//21 36//21
f 36//22 35//22 33//18
f 37//23 36//21 35//21
f 35//22 36//22 37//24
f 36//21 37//23 38//25
f 38//26 37//24 36//22
f 37//23 39//27 38//25
f 38//26 39//28 37//24
f 39//27 37//23 40//27
f 40//28 37//24 39//28
f 40//27 41//29 39//27
f 39//28 41//30 40//28
f 41//29 40//27 42//31
f 42//32 40//28 41//30
f 43//33 41//29 42//31
f 42//32 41//30 43//34
f 41//29 43//33 44//35
f 44//36 43//34 41//30
f 45//37 44//35 43//33
f 43//34 44//36 45//38
f 44//35 45//37 46//39
f 46//40 45//38 44//36
f 45//37 47//41 46//39
f 46//40 47//42 45//38
f 47//41 45//37 48//43
f 48//44 45//38 47//42
f 48//43 49//45 47//41
f 47//42 49//46 48//44
f 49//45 48//43 50//47
f 50//48 48//44 49//46
f 50//47 51//6 49//45
f 49//46 51//4 50//48
f 51//6 50//47 52//6
f 52//4 50//48 51//4
f 51//6 53//49 54//50
f 54//52 53//51 51//4
f 53//49 51//6 52//6
f 52//4 51//4 53//51
f 53//49 55//53 54//50
f 54//52 55//54 53//51
f 55//53 53//49 56//55
f 56//56 53//51 55//54
f 55//53 57//57 58//58
f 58//60 57//59 55//54
f 57//57 55//53 56//55
f 56//56 55//54 57//59
f 58//58 59//61 60//62
f 60//64 59//63 58//60
f 59//61 58//58 57//57
f 57//59 58//60 59//63
f 61//65 59//61 62//66
f 62//68 59//63 61//67
f 59//61 61//65 60//62
f 60//64 61//67 59//63
f 61//65 63//28 64//28
f 64//27 63//27 61//67
f 63//28 61//65 62//66
f 62//68 61//67 63//27
f 64//28 65//69 66//70
f 66//72 65//71 64//27
f 65//69 64//28 63//28
f 63//27 64//27 65//71
f 66//70 67//73 68//73
f 68//74 67//74 66//72
f 67//73 66//70 65//69
f 65//71 66//72 67//74
f 69//75 67//73 70//76
f 70//78 67//74 69//77
f 67//73 69//75 68//73
f 68//74 69//77 67//74
f 69//75 71//79 72//80
f 72//82 71//81 69//77
f 71//79 69//75 70//76
f 70//78 69//77 71//81
f 71//79 25//3 72//80
f 72//82 25//5 71//81
f 25//3 71//79 28//7
f 28//8 71//81 25//5
