# SSTK version 0.8.0
# 8
mtllib original-8.mtl
o #ID133
v -0.352319 0.297641 0.361088
v -0.353345 0.297641 0.361088
v -0.352832 0.297574 0.361088
v -0.351840 0.297840 0.361088
v -0.353823 0.297840 0.361088
v -0.351429 0.298155 0.361088
v -0.354234 0.298155 0.361088
v -0.351114 0.298565 0.361088
v -0.354549 0.298565 0.361088
v -0.354747 0.299044 0.361088
v -0.350916 0.299044 0.361088
v -0.350849 0.299557 0.361088
v -0.354815 0.299557 0.361088
v -0.350916 0.300070 0.361088
v -0.354747 0.300070 0.361088
v -0.351114 0.300549 0.361088
v -0.354549 0.300549 0.361088
v -0.354234 0.300959 0.361088
v -0.351429 0.300959 0.361088
v -0.351840 0.301275 0.361088
v -0.353823 0.301275 0.361088
v -0.352319 0.301473 0.361088
v -0.353345 0.301473 0.361088
v -0.352832 0.301540 0.361088
v -0.354747 0.300070 0.360472
v -0.354815 0.299557 0.361088
v -0.354747 0.300070 0.361088
v -0.354815 0.299557 0.360472
v -0.354747 0.299044 0.360472
v -0.354747 0.299044 0.361088
v -0.354549 0.298565 0.361088
v -0.354549 0.298565 0.360472
v -0.354234 0.298155 0.360472
v -0.354234 0.298155 0.361088
v -0.353823 0.297840 0.360472
v -0.353823 0.297840 0.361088
v -0.353345 0.297641 0.360472
v -0.353345 0.297641 0.361088
v -0.352832 0.297574 0.361088
v -0.352832 0.297574 0.360472
v -0.352319 0.297641 0.361088
v -0.352319 0.297641 0.360472
v -0.351840 0.297840 0.361088
v -0.351840 0.297840 0.360472
v -0.351429 0.298155 0.360472
v -0.351429 0.298155 0.361088
v -0.351114 0.298565 0.360472
v -0.351114 0.298565 0.361088
v -0.350916 0.299044 0.361088
v -0.350916 0.299044 0.360472
v -0.350849 0.299557 0.360472
v -0.350849 0.299557 0.361088
v -0.350916 0.300070 0.361088
v -0.350916 0.300070 0.360472
v -0.351114 0.300549 0.361088
v -0.351114 0.300549 0.360472
v -0.351429 0.300959 0.361088
v -0.351429 0.300959 0.360472
v -0.351840 0.301275 0.360472
v -0.351840 0.301275 0.361088
v -0.352319 0.301473 0.360472
v -0.352319 0.301473 0.361088
v -0.352832 0.301540 0.360472
v -0.352832 0.301540 0.361088
v -0.353345 0.301473 0.360472
v -0.353345 0.301473 0.361088
v -0.353823 0.301275 0.361088
v -0.353823 0.301275 0.360472
v -0.354234 0.300959 0.361088
v -0.354234 0.300959 0.360472
v -0.354549 0.300549 0.361088
v -0.354549 0.300549 0.360472
vn 0 0 1
vn 0 0 -1
vn -0.9659258262890148 0.2588190451027208 0
vn -1 0 0
vn -0.9659258262890286 0.258819045102669 0
vn 0.9659258262890148 -0.2588190451027208 0
vn 1 0 0
vn 0.9659258262890286 -0.258819045102669 0
vn -0.9659258262890358 -0.2588190451026419 0
vn -0.9659258262890497 -0.2588190451025902 0
vn 0.9659258262890358 0.2588190451026419 0
vn 0.9659258262890497 0.2588190451025902 0
vn -0.8660254037847656 -0.4999999999994341 0
vn 0.8660254037847656 0.4999999999994341 0
vn -0.8660254037847417 -0.4999999999994753 0
vn 0.8660254037847417 0.4999999999994753 0
vn -0.7071067811865525 -0.7071067811865426 0
vn -0.7071067811864298 -0.7071067811866653 0
vn 0.7071067811865525 0.7071067811865426 0
vn 0.7071067811864298 0.7071067811866653 0
vn -0.4999999999999558 -0.8660254037844642 0
vn 0.4999999999999558 0.8660254037844642 0
vn -0.49999999999991124 -0.8660254037844901 0
vn 0.49999999999991124 0.8660254037844901 0
vn -0.25881904510236003 -0.9659258262891115 0
vn 0.25881904510236003 0.9659258262891115 0
vn -0.2588190451025404 -0.9659258262890631 0
vn 0.2588190451025404 0.9659258262890631 0
vn 0 -1 0
vn 0 1 0
vn 0.2588190451024013 -0.9659258262891005 0
vn -0.2588190451024013 0.9659258262891005 0
vn 0.25881904510246057 -0.9659258262890845 0
vn -0.25881904510246057 0.9659258262890845 0
vn 0.4999999999999343 -0.8660254037844767 0
vn -0.4999999999999343 0.8660254037844767 0
vn 0.4999999999999961 -0.8660254037844409 0
vn -0.4999999999999961 0.8660254037844409 0
vn 0.7071067811866278 -0.7071067811864672 0
vn -0.7071067811866278 0.7071067811864672 0
vn 0.7071067811865177 -0.7071067811865773 0
vn -0.7071067811865177 0.7071067811865773 0
vn 0.8660254037844807 -0.4999999999999273 0
vn 0.8660254037845165 -0.49999999999986533 0
vn -0.8660254037844807 0.4999999999999273 0
vn -0.8660254037845165 0.49999999999986533 0
vn 0.9659258262890655 -0.2588190451025312 0
vn -0.9659258262890655 0.2588190451025312 0
vn 0.9659258262890484 -0.25881904510259557 0
vn -0.9659258262890484 0.25881904510259557 0
vn 0.9659258262890867 0.2588190451024525 0
vn -0.9659258262890867 -0.2588190451024525 0
vn 0.9659258262890695 0.2588190451025167 0
vn -0.9659258262890695 -0.2588190451025167 0
vn 0.8660254037844923 0.499999999999907 0
vn -0.8660254037844923 -0.499999999999907 0
vn 0.8660254037844565 0.4999999999999689 0
vn -0.8660254037844565 -0.4999999999999689 0
vn 0.707106781186426 0.7071067811866691 0
vn -0.707106781186426 -0.7071067811866691 0
vn 0.7071067811865361 0.7071067811865589 0
vn -0.7071067811865361 -0.7071067811865589 0
vn 0.4999999999999961 0.8660254037844409 0
vn 0.4999999999999343 0.8660254037844767 0
vn -0.4999999999999961 -0.8660254037844409 0
vn -0.4999999999999343 -0.8660254037844767 0
vn 0.25881904510246057 0.9659258262890845 0
vn 0.2588190451024013 0.9659258262891005 0
vn -0.25881904510246057 -0.9659258262890845 0
vn -0.2588190451024013 -0.9659258262891005 0
vn -0.25881904510236003 0.9659258262891115 0
vn -0.2588190451025404 0.9659258262890631 0
vn 0.25881904510236003 -0.9659258262891115 0
vn 0.2588190451025404 -0.9659258262890631 0
vn -0.4999999999999113 0.8660254037844901 0
vn -0.4999999999999559 0.8660254037844642 0
vn 0.4999999999999113 -0.8660254037844901 0
vn 0.4999999999999559 -0.8660254037844642 0
vn -0.7071067811865216 0.7071067811865736 0
vn -0.7071067811866443 0.7071067811864509 0
vn 0.7071067811865216 -0.7071067811865736 0
vn 0.7071067811866443 -0.7071067811864509 0
vn -0.8660254037847895 0.4999999999993923 0
vn 0.8660254037847895 -0.4999999999993923 0
vn -0.8660254037847658 0.4999999999994336 0
vn 0.8660254037847658 -0.4999999999994336 0
usemtl material_0_2
f 1//1 2//1 3//1
f 3//2 2//2 1//2
f 2//1 1//1 4//1
f 4//2 1//2 2//2
f 2//1 4//1 5//1
f 5//2 4//2 2//2
f 5//1 4//1 6//1
f 6//2 4//2 5//2
f 5//1 6//1 7//1
f 7//2 6//2 5//2
f 7//1 6//1 8//1
f 8//2 6//2 7//2
f 7//1 8//1 9//1
f 9//2 8//2 7//2
f 9//1 8//1 10//1
f 10//2 8//2 9//2
f 10//1 8//1 11//1
f 11//2 8//2 10//2
f 10//1 11//1 12//1
f 12//2 11//2 10//2
f 10//1 12//1 13//1
f 13//2 12//2 10//2
f 13//1 12//1 14//1
f 14//2 12//2 13//2
f 13//1 14//1 15//1
f 15//2 14//2 13//2
f 15//1 14//1 16//1
f 16//2 14//2 15//2
f 15//1 16//1 17//1
f 17//2 16//2 15//2
f 17//1 16//1 18//1
f 18//2 16//2 17//2
f 18//1 16//1 19//1
f 19//2 16//2 18//2
f 18//1 19//1 20//1
f 20//2 19//2 18//2
f 18//1 20//1 21//1
f 21//2 20//2 18//2
f 21//1 20//1 22//1
f 22//2 20//2 21//2
f 21//1 22//1 23//1
f 23//2 22//2 21//2
f 23//1 22//1 24//1
f 24//2 22//2 23//2
f 25//3 26//4 27//5
f 27//8 26//7 25//6
f 26//4 25//3 28//4
f 28//7 25//6 26//7
f 26//4 29//9 30//10
f 30//12 29//11 26//7
f 29//9 26//4 28//4
f 28//7 26//7 29//11
f 29//9 31//13 30//10
f 30//12 31//14 29//11
f 31//13 29//9 32//15
f 32//16 29//11 31//14
f 31//13 33//17 34//18
f 34//20 33//19 31//14
f 33//17 31//13 32//15
f 32//16 31//14 33//19
f 35//21 34//18 33//17
f 33//19 34//20 35//22
f 34//18 35//21 36//23
f 36//24 35//22 34//20
f 37//25 36//23 35//21
f 35//22 36//24 37//26
f 36//23 37//25 38//27
f 38//28 37//26 36//24
f 37//25 39//29 38//27
f 38//28 39//30 37//26
f 39//29 37//25 40//29
f 40//30 37//26 39//30
f 40//29 41//31 39//29
f 39//30 41//32 40//30
f 41//31 40//29 42//33
f 42//34 40//30 41//32
f 42//33 43//35 41//31
f 41//32 43//36 42//34
f 43//35 42//33 44//37
f 44//38 42//34 43//36
f 45//39 43//35 44//37
f 44//38 43//36 45//40
f 43//35 45//39 46//41
f 46//42 45//40 43//36
f 46//41 47//43 48//44
f 48//46 47//45 46//42
f 47//43 46//41 45//39
f 45//40 46//42 47//45
f 47//43 49//47 48//44
f 48//46 49//48 47//45
f 49//47 47//43 50//49
f 50//50 47//45 49//48
f 49//47 51//7 52//7
f 52//4 51//4 49//48
f 51//7 49//47 50//49
f 50//50 49//48 51//4
f 51//7 53//51 52//7
f 52//4 53//52 51//4
f 53//51 51//7 54//53
f 54//54 51//4 53//52
f 54//53 55//55 53//51
f 53//52 55//56 54//54
f 55//55 54//53 56//57
f 56//58 54//54 55//56
f 56//57 57//59 55//55
f 55//56 57//60 56//58
f 57//59 56//57 58//61
f 58//62 56//58 57//60
f 57//59 59//63 60//64
f 60//66 59//65 57//60
f 59//63 57//59 58//61
f 58//62 57//60 59//65
f 60//64 61//67 62//68
f 62//70 61//69 60//66
f 61//67 60//64 59//63
f 59//65 60//66 61//69
f 62//68 63//30 64//30
f 64//29 63//29 62//70
f 63//30 62//68 61//67
f 61//69 62//70 63//29
f 64//30 65//71 66//72
f 66//74 65//73 64//29
f 65//71 64//30 63//30
f 63//29 64//29 65//73
f 67//75 65//71 68//76
f 68//78 65//73 67//77
f 65//71 67//75 66//72
f 66//74 67//77 65//73
f 69//79 68//76 70//80
f 70//82 68//78 69//81
f 68//76 69//79 67//75
f 67//77 69//81 68//78
f 70//80 71//83 69//79
f 69//81 71//84 70//82
f 71//83 70//80 72//85
f 72//86 70//82 71//84
f 71//83 25//3 27//5
f 27//8 25//6 71//84
f 25//3 71//83 72//85
f 72//86 71//84 25//6
