# SSTK version 0.8.0
# 6
mtllib original-6.mtl
o #ID119
v -0.359507 0.292806 0.263178
v -0.392564 0.292806 0.360472
v -0.392564 0.292806 0.263178
v 0.385788 0.292806 0.360472
v 0.374912 0.292806 0.263178
v 0.385788 0.292806 0.263178
v 0.374912 0.292806 0.263178
v -0.359507 0.279314 0.263178
v 0.374912 0.279314 0.263178
v -0.392564 0.279314 0.263178
v -0.392564 0.292806 0.263178
v -0.359507 0.292806 0.263178
vn 0 -1 0
vn 0 1 0
vn 0 0 1
vn 0 0 -1
usemtl material_0_2
f 1//1 2//1 3//1
f 3//2 2//2 1//2
f 2//1 1//1 4//1
f 4//2 1//2 2//2
f 4//1 1//1 5//1
f 5//2 1//2 4//2
f 4//1 5//1 6//1
f 6//2 5//2 4//2
f 7//3 8//3 9//3
f 9//4 8//4 7//4
f 8//3 7//3 10//3
f 10//4 7//4 8//4
f 10//3 7//3 11//3
f 11//4 7//4 10//4
f 11//3 7//3 12//3
f 12//4 7//4 11//4
